<?xml version="1.0" encoding="UTF-8"?>
<!-- Generator: CustomSymbols v2.7.2.48 by @serious_bret https://bretlester.com/app_content/CustomSymbols/ -->
<!-- Guides: Left/Right 0.0/0.0 Cap/Base 0.183/0.183 -->
<!-- Settings: RefScale 0.8999999761581421 Min/Max Stroke Scales 0.5/1.5 -->
<!DOCTYPE svg
PUBLIC "-//W3C//DTD SVG 1.1//EN"
       "http://www.w3.org/Graphics/SVG/1.1/DTD/svg11.dtd">
<svg version="1.1" xmlns="http://www.w3.org/2000/svg" xmlns:xlink="http://www.w3.org/1999/xlink" width="3300" height="2200">
<![CDATA[<svg xmlns="http://www.w3.org/2000/svg" width="24" height="24" viewBox="0 0 24 24" fill="none" stroke="currentColor" stroke-width="2" stroke-linecap="round" stroke-linejoin="round" class="feather feather-save"><path d="M19 21H5a2 2 0 0 1-2-2V5a2 2 0 0 1 2-2h11l5 5v11a2 2 0 0 1-2 2z"></path><polyline points="17 21 17 13 7 13 7 21"></polyline><polyline points="7 3 7 8 15 8"></polyline></svg>]]>
 <g id="Notes">
  <rect height="2200" id="artboard" style="fill:white;opacity:1" width="3300" x="0" y="0"/>
  <line id="" style="fill:none;stroke:black;opacity:1;stroke-width:0.5;" x1="263" x2="3036" y1="292" y2="292"/>
  <text id="reftext1" style="stroke:none;fill:black;font-family:-apple-system,&quot;SF Pro Display&quot;,&quot;SF Pro Text&quot;,Helvetica,sans-serif;font-weight:bold;" transform="matrix(1 0 0 1 263 322)">Weight/Scale Variations</text>
  <text id="reftext2" style="stroke:none;fill:black;font-family:-apple-system,&quot;SF Pro Display&quot;,&quot;SF Pro Text&quot;,Helvetica,sans-serif;text-anchor:middle;" transform="matrix(1 0 0 1 559.711 322)">Ultralight</text>
  <text style="stroke:none;fill:black;font-family:-apple-system,&quot;SF Pro Display&quot;,&quot;SF Pro Text&quot;,Helvetica,sans-serif;text-anchor:middle;" transform="matrix(1 0 0 1 856.422 322)">Thin</text>
  <text style="stroke:none;fill:black;font-family:-apple-system,&quot;SF Pro Display&quot;,&quot;SF Pro Text&quot;,Helvetica,sans-serif;text-anchor:middle;" transform="matrix(1 0 0 1 1153.13 322)">Light</text>
  <text style="stroke:none;fill:black;font-family:-apple-system,&quot;SF Pro Display&quot;,&quot;SF Pro Text&quot;,Helvetica,sans-serif;text-anchor:middle;" transform="matrix(1 0 0 1 1449.84 322)">Regular</text>
  <text style="stroke:none;fill:black;font-family:-apple-system,&quot;SF Pro Display&quot;,&quot;SF Pro Text&quot;,Helvetica,sans-serif;text-anchor:middle;" transform="matrix(1 0 0 1 1746.56 322)">Medium</text>
  <text style="stroke:none;fill:black;font-family:-apple-system,&quot;SF Pro Display&quot;,&quot;SF Pro Text&quot;,Helvetica,sans-serif;text-anchor:middle;" transform="matrix(1 0 0 1 2043.27 322)">Semibold</text>
  <text style="stroke:none;fill:black;font-family:-apple-system,&quot;SF Pro Display&quot;,&quot;SF Pro Text&quot;,Helvetica,sans-serif;text-anchor:middle;" transform="matrix(1 0 0 1 2339.98 322)">Bold</text>
  <text style="stroke:none;fill:black;font-family:-apple-system,&quot;SF Pro Display&quot;,&quot;SF Pro Text&quot;,Helvetica,sans-serif;text-anchor:middle;" transform="matrix(1 0 0 1 2636.69 322)">Heavy</text>
  <text style="stroke:none;fill:black;font-family:-apple-system,&quot;SF Pro Display&quot;,&quot;SF Pro Text&quot;,Helvetica,sans-serif;text-anchor:middle;" transform="matrix(1 0 0 1 2933.4 322)">Black</text>
  <line id="" style="fill:none;stroke:black;opacity:1;stroke-width:0.5;" x1="263" x2="3036" y1="1903" y2="1903"/>
  <g id="" transform="matrix(1 0 0 1 263 1933)">
   <path d="M9.24805 0.830078C13.5547 0.830078 17.1387-2.74414 17.1387-7.05078C17.1387-11.3574 13.5449-14.9316 9.23828-14.9316C4.94141-14.9316 1.36719-11.3574 1.36719-7.05078C1.36719-2.74414 4.95117 0.830078 9.24805 0.830078ZM9.24805-0.654297C5.70312-0.654297 2.87109-3.49609 2.87109-7.05078C2.87109-10.6055 5.69336-13.4473 9.23828-13.4473C12.793-13.4473 15.6348-10.6055 15.6445-7.05078C15.6543-3.49609 12.8027-0.654297 9.24805-0.654297ZM6.39648-6.31836L8.50586-6.31836L8.50586-4.19922C8.50586-3.75977 8.79883-3.45703 9.22852-3.45703C9.67773-3.45703 9.9707-3.75977 9.9707-4.19922L9.9707-6.31836L12.0996-6.31836C12.5391-6.31836 12.8418-6.61133 12.8418-7.04102C12.8418-7.48047 12.5391-7.7832 12.0996-7.7832L9.9707-7.7832L9.9707-9.89258C9.9707-10.3418 9.67773-10.6445 9.22852-10.6445C8.79883-10.6445 8.50586-10.3418 8.50586-9.89258L8.50586-7.7832L6.39648-7.7832C5.94727-7.7832 5.64453-7.48047 5.64453-7.04102C5.64453-6.61133 5.94727-6.31836 6.39648-6.31836Z"/>
  </g>
  <g id="" transform="matrix(1 0 0 1 281.506 1933)">
   <path d="M11.709 2.91016C17.1582 2.91016 21.6699-1.61133 21.6699-7.05078C21.6699-12.5 17.1484-17.0117 11.6992-17.0117C6.25977-17.0117 1.74805-12.5 1.74805-7.05078C1.74805-1.61133 6.26953 2.91016 11.709 2.91016ZM11.709 1.25C7.09961 1.25 3.41797-2.44141 3.41797-7.05078C3.41797-11.6602 7.08984-15.3516 11.6992-15.3516C16.3086-15.3516 20-11.6602 20.0098-7.05078C20.0195-2.44141 16.3184 1.25 11.709 1.25ZM7.98828-6.23047L10.8789-6.23047L10.8789-3.32031C10.8789-2.83203 11.2109-2.5 11.6895-2.5C12.1777-2.5 12.5195-2.83203 12.5195-3.32031L12.5195-6.23047L15.4297-6.23047C15.918-6.23047 16.25-6.5625 16.25-7.04102C16.25-7.5293 15.918-7.87109 15.4297-7.87109L12.5195-7.87109L12.5195-10.7617C12.5195-11.2695 12.1777-11.6016 11.6895-11.6016C11.2109-11.6016 10.8789-11.2598 10.8789-10.7617L10.8789-7.87109L7.98828-7.87109C7.48047-7.87109 7.14844-7.5293 7.14844-7.04102C7.14844-6.5625 7.49023-6.23047 7.98828-6.23047Z"/>
  </g>
  <g id="" transform="matrix(1 0 0 1 304.924 1933)">
   <path d="M14.9707 5.66406C21.9336 5.66406 27.6953-0.0976562 27.6953-7.05078C27.6953-14.0137 21.9238-19.7754 14.9609-19.7754C8.00781-19.7754 2.25586-14.0137 2.25586-7.05078C2.25586-0.0976562 8.01758 5.66406 14.9707 5.66406ZM14.9707 3.84766C8.93555 3.84766 4.08203-1.01562 4.08203-7.05078C4.08203-13.0957 8.92578-17.9492 14.9609-17.9492C21.0059-17.9492 25.8594-13.0957 25.8691-7.05078C25.8789-1.01562 21.0156 3.84766 14.9707 3.84766ZM10.0586-6.14258L14.0625-6.14258L14.0625-2.12891C14.0625-1.5918 14.4336-1.2207 14.9512-1.2207C15.4883-1.2207 15.8594-1.5918 15.8594-2.12891L15.8594-6.14258L19.8828-6.14258C20.4102-6.14258 20.791-6.51367 20.791-7.03125C20.791-7.56836 20.4199-7.94922 19.8828-7.94922L15.8594-7.94922L15.8594-11.9531C15.8594-12.5098 15.4883-12.8809 14.9512-12.8809C14.4336-12.8809 14.0625-12.5 14.0625-11.9531L14.0625-7.94922L10.0586-7.94922C9.50195-7.94922 9.13086-7.56836 9.13086-7.03125C9.13086-6.51367 9.51172-6.14258 10.0586-6.14258Z"/>
  </g>
  <text style="stroke:none;fill:black;font-family:-apple-system,&quot;SF Pro Display&quot;,&quot;SF Pro Text&quot;,Helvetica,sans-serif;font-weight:bold;" transform="matrix(1 0 0 1 263 1953)">Design Variations</text>
  <text style="stroke:none;fill:black;font-family:-apple-system,&quot;SF Pro Display&quot;,&quot;SF Pro Text&quot;,Helvetica,sans-serif;" transform="matrix(1 0 0 1 263 1971)">Symbols are supported in up to nine weights and three scales.</text>
  <text style="stroke:none;fill:black;font-family:-apple-system,&quot;SF Pro Display&quot;,&quot;SF Pro Text&quot;,Helvetica,sans-serif;" transform="matrix(1 0 0 1 263 1989)">For optimal layout with text and other symbols, vertically align</text>
  <text style="stroke:none;fill:black;font-family:-apple-system,&quot;SF Pro Display&quot;,&quot;SF Pro Text&quot;,Helvetica,sans-serif;" transform="matrix(1 0 0 1 263 2007)">symbols with the adjacent text.</text>
  <line id="" style="fill:none;stroke:#00AEEF;stroke-width:0.5;opacity:1.0;" x1="776" x2="776" y1="1919" y2="1933"/>
  <g id="" transform="matrix(1 0 0 1 776 1933)">
   <path d="M3.31055 0.126953C3.82812 0.126953 4.08203-0.0683594 4.26758-0.605469L5.52734-4.0625L11.2891-4.0625L12.5488-0.605469C12.7344-0.0683594 12.9883 0.126953 13.4961 0.126953C14.0137 0.126953 14.3457-0.185547 14.3457-0.673828C14.3457-0.839844 14.3164-0.986328 14.2383-1.20117L9.6582-13.3887C9.43359-13.9941 9.0332-14.2871 8.4082-14.2871C7.80273-14.2871 7.39258-13.9941 7.17773-13.3984L2.59766-1.19141C2.51953-0.976562 2.49023-0.830078 2.49023-0.664062C2.49023-0.175781 2.80273 0.126953 3.31055 0.126953ZM6.00586-5.53711L8.37891-12.1094L8.42773-12.1094L10.8008-5.53711Z"/>
  </g>
  <line id="" style="fill:none;stroke:#00AEEF;stroke-width:0.5;opacity:1.0;" x1="792.836" x2="792.836" y1="1919" y2="1933"/>
  <text style="stroke:none;fill:black;font-family:-apple-system,&quot;SF Pro Display&quot;,&quot;SF Pro Text&quot;,Helvetica,sans-serif;font-weight:bold;" transform="matrix(1 0 0 1 776 1953)">Margins</text>
  <text style="stroke:none;fill:black;font-family:-apple-system,&quot;SF Pro Display&quot;,&quot;SF Pro Text&quot;,Helvetica,sans-serif;" transform="matrix(1 0 0 1 776 1971)">Leading and trailing margins on the left and right side of each symbol</text>
  <text style="stroke:none;fill:black;font-family:-apple-system,&quot;SF Pro Display&quot;,&quot;SF Pro Text&quot;,Helvetica,sans-serif;" transform="matrix(1 0 0 1 776 1989)">can be adjusted by modifying the x-location of the margin guidelines.</text>
  <text style="stroke:none;fill:black;font-family:-apple-system,&quot;SF Pro Display&quot;,&quot;SF Pro Text&quot;,Helvetica,sans-serif;" transform="matrix(1 0 0 1 776 2007)">Modifications are automatically applied proportionally to all</text>
  <text style="stroke:none;fill:black;font-family:-apple-system,&quot;SF Pro Display&quot;,&quot;SF Pro Text&quot;,Helvetica,sans-serif;" transform="matrix(1 0 0 1 776 2025)">scales and weights.</text>
  <g id="" transform="matrix(1 0 0 1 1289 1933)">
   <path d="M2.8418 1.86523L4.54102 3.57422C5.40039 4.44336 6.38672 4.38477 7.31445 3.35938L17.4902-7.85156C17.7539-7.76367 18.0273-7.7832 18.3398-7.8418L19.4043-8.03711L20.0684-7.36328L20.0293-6.80664C19.9902-6.30859 20.1172-5.92773 20.6055-5.44922L21.3672-4.70703C21.8457-4.22852 22.4609-4.19922 22.9297-4.66797L25.8398-7.58789C26.3086-8.05664 26.2891-8.65234 25.8105-9.13086L25.0391-9.89258C24.5605-10.3711 24.1895-10.5273 23.7109-10.4883L23.1348-10.4395L22.4902-11.0742L22.7344-12.1973C22.8613-12.7637 22.7051-13.2031 22.1191-13.7891L19.9219-15.9766C16.582-19.2969 12.1484-19.2188 9.25781-16.3281C8.83789-15.918 8.80859-15.3418 9.04297-14.9512C9.27734-14.5898 9.73633-14.3555 10.3809-14.5215C11.8457-14.8633 13.3691-14.9219 14.7949-13.9844L14.209-12.5293C14.0137-12.0508 13.9844-11.6504 14.1113-11.2891L3.04688-0.898438C2.06055 0.0195312 1.98242 0.996094 2.8418 1.86523ZM10.752-15.957C13.1836-17.7344 16.4746-17.4316 18.7012-15.2051L21.1328-12.793C21.3672-12.5586 21.4062-12.373 21.3379-12.0312L21.0156-10.5469L22.5195-9.0625L23.5059-9.12109C23.7598-9.13086 23.8379-9.11133 24.0332-8.91602L24.6094-8.33984L22.168-5.89844L21.5918-6.47461C21.3965-6.66992 21.3672-6.74805 21.377-7.01172L21.4453-7.98828L19.9512-9.47266L18.4277-9.21875C18.1055-9.15039 17.959-9.17969 17.7148-9.41406L15.7129-11.416C15.459-11.6504 15.4297-11.8164 15.5859-12.1875L16.4648-14.2773C14.9023-15.7324 12.8711-16.3574 10.8398-15.7617C10.6836-15.7227 10.625-15.8496 10.752-15.957ZM5.27344 2.30469L4.10156 1.14258C3.63281 0.683594 3.74023 0.341797 4.14062-0.0195312L14.9512-10.1953L16.416-8.71094L6.42578 2.27539C6.07422 2.67578 5.74219 2.77344 5.27344 2.30469Z"/>
  </g>
  <text style="stroke:none;fill:black;font-family:-apple-system,&quot;SF Pro Display&quot;,&quot;SF Pro Text&quot;,Helvetica,sans-serif;font-weight:bold;" transform="matrix(1 0 0 1 1289 1953)">Exporting</text>
  <text style="stroke:none;fill:black;font-family:-apple-system,&quot;SF Pro Display&quot;,&quot;SF Pro Text&quot;,Helvetica,sans-serif;" transform="matrix(1 0 0 1 1289 1971)">Symbols should be outlined when exporting to ensure the</text>
  <text style="stroke:none;fill:black;font-family:-apple-system,&quot;SF Pro Display&quot;,&quot;SF Pro Text&quot;,Helvetica,sans-serif;" transform="matrix(1 0 0 1 1289 1989)">design is preserved when submitting to Xcode.</text>
  <text id="template-version" style="stroke:none;fill:black;font-family:-apple-system,&quot;SF Pro Display&quot;,&quot;SF Pro Text&quot;,Helvetica,sans-serif;text-anchor:end;" transform="matrix(1 0 0 1 3036 1933)">Template v.2.0</text>
  <text style="stroke:none;fill:black;font-family:-apple-system,&quot;SF Pro Display&quot;,&quot;SF Pro Text&quot;,Helvetica,sans-serif;text-anchor:end;" transform="matrix(1 0 0 1 3036 1951)">Requires Xcode 12 or greater</text>
  <text style="stroke:none;fill:black;font-family:-apple-system,&quot;SF Pro Display&quot;,&quot;SF Pro Text&quot;,Helvetica,sans-serif;" transform="matrix(1 0 0 1 263 726)">Small</text>
  <text style="stroke:none;fill:black;font-family:-apple-system,&quot;SF Pro Display&quot;,&quot;SF Pro Text&quot;,Helvetica,sans-serif;" transform="matrix(1 0 0 1 263 1156)">Medium</text>
  <text style="stroke:none;fill:black;font-family:-apple-system,&quot;SF Pro Display&quot;,&quot;SF Pro Text&quot;,Helvetica,sans-serif;" transform="matrix(1 0 0 1 263 1586)">Large</text>
 </g>
 <g id="Guides">
  <g id="H-reference" style="fill:#27AAE1;stroke:none;" transform="matrix(1 0 0 1 339 696)">
   <path d="M0.976562 0L3.66211 0L12.9883-24.4629L45.752-24.4629L55.127 0L57.7637 0L30.6152-70.459L28.125-70.459ZM29.3457-67.1387L29.4434-67.1387L44.873-26.709L13.8672-26.709Z"/>
  </g>
  <line id="Baseline-S" style="fill:none;stroke:#27AAE1;opacity:1;stroke-width:0.5;" x1="263" x2="3036" y1="696" y2="696"/>
  <line id="Capline-S" style="fill:none;stroke:#27AAE1;opacity:1;stroke-width:0.5;" x1="263" x2="3036" y1="625.541" y2="625.541"/>
  <g id="H-reference" style="fill:#27AAE1;stroke:none;" transform="matrix(1 0 0 1 339 1126)">
   <path d="M0.976562 0L3.66211 0L12.9883-24.4629L45.752-24.4629L55.127 0L57.7637 0L30.6152-70.459L28.125-70.459ZM29.3457-67.1387L29.4434-67.1387L44.873-26.709L13.8672-26.709Z"/>
  </g>
  <line id="Baseline-M" style="fill:none;stroke:#27AAE1;opacity:1;stroke-width:0.5;" x1="263" x2="3036" y1="1126" y2="1126"/>
  <line id="Capline-M" style="fill:none;stroke:#27AAE1;opacity:1;stroke-width:0.5;" x1="263" x2="3036" y1="1055.54" y2="1055.54"/>
  <g id="H-reference" style="fill:#27AAE1;stroke:none;" transform="matrix(1 0 0 1 339 1556)">
   <path d="M0.976562 0L3.66211 0L12.9883-24.4629L45.752-24.4629L55.127 0L57.7637 0L30.6152-70.459L28.125-70.459ZM29.3457-67.1387L29.4434-67.1387L44.873-26.709L13.8672-26.709Z"/>
  </g>
  <line id="Baseline-L" style="fill:none;stroke:#27AAE1;opacity:1;stroke-width:0.5;" x1="263" x2="3036" y1="1556" y2="1556"/>
  <line id="Capline-L" style="fill:none;stroke:#27AAE1;opacity:1;stroke-width:0.5;" x1="263" x2="3036" y1="1485.54" y2="1485.54"/>
  <line id="left-margin" x1="1395.5622074625394" x2="1395.5622074625394" y1="1030.79" y2="1150.12" style="fill:none;stroke:#00AEEF;stroke-width:0.5;opacity:1.0;"/>
  <line id="right-margin" x1="1506.6977925374604" x2="1506.6977925374604" y1="1030.79" y2="1150.12" style="fill:none;stroke:#00AEEF;stroke-width:0.5;opacity:1.0;"/>
 </g>
 <g id="Symbols">
  <g id="Black-L" transform="matrix(1.0,0.0,0.0,1.0,2862.997547626676,1449.0875671579258)">  <path stroke-width="1.62px" stroke-miterlimit="4" stroke-linecap="round" stroke-dasharray="none" stroke-opacity="1" fill-opacity="1" stroke="none" stroke-linejoin="round" fill="#000000" fill-rule="nonzero" d="M113.497,118.912L29.868,118.912C26.877,118.912,24.453,116.488,24.453,113.497L24.453,29.868C24.453,26.877,26.877,24.453,29.868,24.453L95.577,24.453L90.958,22.539L120.825,52.407L118.912,47.788L118.912,113.497C118.912,116.488,116.488,118.912,113.497,118.912ZM113.497,131.976C123.703,131.976,131.976,123.703,131.976,113.497L131.976,47.788C131.976,46.056,131.288,44.394,130.063,43.169L100.195,13.302C98.97,12.077,97.309,11.389,95.577,11.389L29.868,11.389C19.662,11.389,11.389,19.662,11.389,29.868L11.389,113.497C11.389,123.703,19.662,131.976,29.868,131.976L113.497,131.976Z"/>
  <path fill="#000000" fill-opacity="1" stroke-width="1.62px" stroke-miterlimit="4" stroke-dasharray="none" stroke-opacity="1" stroke-linejoin="round" fill-rule="nonzero" stroke="none" points="17 21 17 13 7 13 7 21" stroke-linecap="round" d="M108.082,125.444L108.082,77.656C108.082,74.048,105.158,71.124,101.55,71.124L41.815,71.124C38.207,71.124,35.283,74.048,35.283,77.656L35.283,125.444C35.283,129.052,38.207,131.976,41.815,131.976C45.422,131.976,48.347,129.052,48.347,125.444L48.347,77.656L41.815,84.188L101.55,84.188L95.018,77.656L95.018,125.444C95.018,129.052,97.943,131.976,101.55,131.976C105.158,131.976,108.082,129.052,108.082,125.444Z"/>
  <path points="7 3 7 8 15 8" stroke-dasharray="none" stroke-opacity="1" stroke-width="1.62px" stroke-linejoin="round" fill="#000000" stroke="none" fill-opacity="1" stroke-miterlimit="4" fill-rule="nonzero" stroke-linecap="round" d="M35.283,17.921L35.283,47.788C35.283,51.396,38.207,54.32,41.815,54.32L89.603,54.32C93.211,54.32,96.135,51.396,96.135,47.788C96.135,44.181,93.211,41.256,89.603,41.256L41.815,41.256L48.347,47.788L48.347,17.921C48.347,14.313,45.422,11.389,41.815,11.389C38.207,11.389,35.283,14.313,35.283,17.921Z"/>
</g>
  <g id="Heavy-L" transform="matrix(1.0,0.0,0.0,1.0,2566.287547626676,1449.0875671579258)">  <path stroke-miterlimit="4" stroke-linecap="round" fill="#000000" fill-rule="nonzero" stroke-width="1.62px" stroke="none" fill-opacity="1" stroke-opacity="1" stroke-linejoin="round" stroke-dasharray="none" d="M113.497,119.348L29.868,119.348C26.637,119.348,24.017,116.728,24.017,113.497L24.017,29.868C24.017,26.637,26.637,24.017,29.868,24.017L95.577,24.017L91.266,22.232L121.133,52.099L119.348,47.788L119.348,113.497C119.348,116.728,116.728,119.348,113.497,119.348ZM113.497,131.541C123.462,131.541,131.541,123.462,131.541,113.497L131.541,47.788C131.541,46.171,130.899,44.621,129.755,43.477L99.888,13.61C98.744,12.466,97.194,11.824,95.577,11.824L29.868,11.824C19.902,11.824,11.824,19.902,11.824,29.868L11.824,113.497C11.824,123.462,19.902,131.541,29.868,131.541L113.497,131.541Z"/>
  <path stroke-miterlimit="4" stroke-linecap="round" points="17 21 17 13 7 13 7 21" stroke-opacity="1" stroke-dasharray="none" stroke="none" fill-opacity="1" stroke-linejoin="round" fill-rule="nonzero" stroke-width="1.62px" fill="#000000" d="M107.647,125.444L107.647,77.656C107.647,74.289,104.917,71.559,101.55,71.559L41.815,71.559C38.448,71.559,35.718,74.289,35.718,77.656L35.718,125.444C35.718,128.811,38.448,131.541,41.815,131.541C45.182,131.541,47.911,128.811,47.911,125.444L47.911,77.656L41.815,83.753L101.55,83.753L95.454,77.656L95.454,125.444C95.454,128.811,98.183,131.541,101.55,131.541C104.917,131.541,107.647,128.811,107.647,125.444Z"/>
  <path stroke-width="1.62px" stroke-linejoin="round" stroke-opacity="1" fill-rule="nonzero" stroke-linecap="round" stroke="none" points="7 3 7 8 15 8" fill-opacity="1" stroke-dasharray="none" fill="#000000" stroke-miterlimit="4" d="M35.718,17.921L35.718,47.788C35.718,51.155,38.448,53.885,41.815,53.885L89.603,53.885C92.97,53.885,95.7,51.155,95.7,47.788C95.7,44.421,92.97,41.692,89.603,41.692L41.815,41.692L47.911,47.788L47.911,17.921C47.911,14.554,45.182,11.824,41.815,11.824C38.448,11.824,35.718,14.554,35.718,17.921Z"/>
</g>
  <g id="Bold-L" transform="matrix(1.0,0.0,0.0,1.0,2269.577547626676,1449.0875671579258)">  <path stroke="none" stroke-linecap="round" stroke-linejoin="round" fill="#000000" stroke-opacity="1" stroke-miterlimit="4" fill-rule="nonzero" stroke-width="1.62px" stroke-dasharray="none" fill-opacity="1" d="M113.497,119.783L29.868,119.783C26.396,119.783,23.582,116.969,23.582,113.497L23.582,29.868C23.582,26.396,26.396,23.582,29.868,23.582L95.577,23.582L91.574,21.924L121.441,51.791L119.783,47.788L119.783,113.497C119.783,116.969,116.969,119.783,113.497,119.783ZM113.497,131.105C123.222,131.105,131.105,123.222,131.105,113.497L131.105,47.788C131.105,46.287,130.509,44.847,129.447,43.785L99.58,13.918C98.518,12.856,97.078,12.259,95.577,12.259L29.868,12.259C20.143,12.259,12.259,20.143,12.259,29.868L12.259,113.497C12.259,123.222,20.143,131.105,29.868,131.105L113.497,131.105Z"/>
  <path fill-opacity="1" stroke-linecap="round" points="17 21 17 13 7 13 7 21" stroke-opacity="1" stroke-linejoin="round" stroke="none" stroke-width="1.62px" fill="#000000" stroke-miterlimit="4" stroke-dasharray="none" fill-rule="nonzero" d="M107.211,125.444L107.211,77.656C107.211,74.529,104.677,71.995,101.55,71.995L41.815,71.995C38.688,71.995,36.154,74.529,36.154,77.656L36.154,125.444C36.154,128.571,38.688,131.105,41.815,131.105C44.941,131.105,47.476,128.571,47.476,125.444L47.476,77.656L41.815,83.317L101.55,83.317L95.889,77.656L95.889,125.444C95.889,128.571,98.424,131.105,101.55,131.105C104.677,131.105,107.211,128.571,107.211,125.444Z"/>
  <path stroke-width="1.62px" fill-opacity="1" fill="#000000" points="7 3 7 8 15 8" stroke="none" stroke-opacity="1" stroke-dasharray="none" stroke-miterlimit="4" fill-rule="nonzero" stroke-linecap="round" stroke-linejoin="round" d="M36.154,17.921L36.154,47.788C36.154,50.915,38.688,53.449,41.815,53.449L89.603,53.449C92.73,53.449,95.264,50.915,95.264,47.788C95.264,44.662,92.73,42.127,89.603,42.127L41.815,42.127L47.476,47.788L47.476,17.921C47.476,14.794,44.941,12.259,41.815,12.259C38.688,12.259,36.154,14.794,36.154,17.921Z"/>
</g>
  <g id="Semibold-L" transform="matrix(1.0,0.0,0.0,1.0,1972.8675476266758,1449.0875671579258)">  <path stroke-miterlimit="4" stroke-opacity="1" fill-opacity="1" stroke-linejoin="round" fill-rule="nonzero" stroke-dasharray="none" stroke-width="1.62px" fill="#000000" stroke="none" stroke-linecap="round" d="M113.497,120.219L29.868,120.219C26.156,120.219,23.146,117.209,23.146,113.497L23.146,29.868C23.146,26.156,26.156,23.146,29.868,23.146L95.577,23.146L91.882,21.616L121.749,51.483L120.219,47.788L120.219,113.497C120.219,117.209,117.209,120.219,113.497,120.219ZM113.497,130.67C122.981,130.67,130.67,122.981,130.67,113.497L130.67,47.788C130.67,46.402,130.119,45.073,129.139,44.093L99.272,14.226C98.292,13.246,96.963,12.695,95.577,12.695L29.868,12.695C20.383,12.695,12.695,20.383,12.695,29.868L12.695,113.497C12.695,122.981,20.383,130.67,29.868,130.67L113.497,130.67Z"/>
  <path stroke-miterlimit="4" stroke="none" stroke-opacity="1" points="17 21 17 13 7 13 7 21" fill-rule="nonzero" stroke-width="1.62px" fill-opacity="1" stroke-dasharray="none" stroke-linecap="round" stroke-linejoin="round" fill="#000000" d="M106.776,125.444L106.776,77.656C106.776,74.77,104.436,72.43,101.55,72.43L41.815,72.43C38.929,72.43,36.589,74.77,36.589,77.656L36.589,125.444C36.589,128.33,38.929,130.67,41.815,130.67C44.701,130.67,47.04,128.33,47.04,125.444L47.04,77.656L41.815,82.882L101.55,82.882L96.324,77.656L96.324,125.444C96.324,128.33,98.664,130.67,101.55,130.67C104.436,130.67,106.776,128.33,106.776,125.444Z"/>
  <path stroke-linecap="round" stroke-miterlimit="4" points="7 3 7 8 15 8" fill-rule="nonzero" stroke="none" stroke-dasharray="none" stroke-linejoin="round" stroke-width="1.62px" fill="#000000" stroke-opacity="1" fill-opacity="1" d="M36.589,17.921L36.589,47.788C36.589,50.674,38.929,53.014,41.815,53.014L89.603,53.014C92.489,53.014,94.829,50.674,94.829,47.788C94.829,44.902,92.489,42.563,89.603,42.563L41.815,42.563L47.04,47.788L47.04,17.921C47.04,15.035,44.701,12.695,41.815,12.695C38.929,12.695,36.589,15.035,36.589,17.921Z"/>
</g>
  <g id="Medium-L" transform="matrix(1.0,0.0,0.0,1.0,1676.1575476266758,1449.0875671579258)">  <path stroke-width="1.62px" stroke-dasharray="none" stroke-miterlimit="4" stroke-linejoin="round" fill-opacity="1" fill="#000000" stroke-linecap="round" stroke="none" fill-rule="nonzero" stroke-opacity="1" d="M113.497,120.654L29.868,120.654C25.915,120.654,22.711,117.45,22.711,113.497L22.711,29.868C22.711,25.915,25.915,22.711,29.868,22.711L95.577,22.711L92.189,21.308L122.057,51.175L120.654,47.788L120.654,113.497C120.654,117.45,117.45,120.654,113.497,120.654ZM113.497,130.234C122.741,130.234,130.234,122.741,130.234,113.497L130.234,47.788C130.234,46.518,129.73,45.299,128.831,44.401L98.964,14.533C98.065,13.635,96.847,13.13,95.577,13.13L29.868,13.13C20.624,13.13,13.13,20.624,13.13,29.868L13.13,113.497C13.13,122.741,20.624,130.234,29.868,130.234L113.497,130.234Z"/>
  <path fill-rule="nonzero" stroke-opacity="1" stroke-linecap="round" stroke-width="1.62px" stroke-linejoin="round" points="17 21 17 13 7 13 7 21" stroke="none" fill-opacity="1" stroke-dasharray="none" stroke-miterlimit="4" fill="#000000" d="M106.34,125.444L106.34,77.656C106.34,75.01,104.196,72.866,101.55,72.866L41.815,72.866C39.169,72.866,37.025,75.01,37.025,77.656L37.025,125.444C37.025,128.09,39.169,130.234,41.815,130.234C44.46,130.234,46.605,128.09,46.605,125.444L46.605,77.656L41.815,82.446L101.55,82.446L96.76,77.656L96.76,125.444C96.76,128.09,98.905,130.234,101.55,130.234C104.196,130.234,106.34,128.09,106.34,125.444Z"/>
  <path fill="#000000" stroke-linejoin="round" fill-opacity="1" stroke-miterlimit="4" stroke-width="1.62px" stroke-opacity="1" stroke="none" points="7 3 7 8 15 8" fill-rule="nonzero" stroke-dasharray="none" stroke-linecap="round" d="M37.025,17.921L37.025,47.788C37.025,50.434,39.169,52.578,41.815,52.578L89.603,52.578C92.249,52.578,94.393,50.434,94.393,47.788C94.393,45.143,92.249,42.998,89.603,42.998L41.815,42.998L46.605,47.788L46.605,17.921C46.605,15.275,44.46,13.13,41.815,13.13C39.169,13.13,37.025,15.275,37.025,17.921Z"/>
</g>
  <g id="Regular-L" transform="matrix(1.0,0.0,0.0,1.0,1379.4475476266757,1449.0875671579258)">  <path stroke-linecap="round" fill-opacity="1" stroke-dasharray="none" stroke-linejoin="round" fill="#000000" stroke="none" stroke-width="1.62px" stroke-opacity="1" stroke-miterlimit="4" fill-rule="nonzero" d="M113.497,121.09L29.868,121.09C25.675,121.09,22.275,117.69,22.275,113.497L22.275,29.868C22.275,25.675,25.675,22.275,29.868,22.275L95.577,22.275L92.497,21L122.365,50.868L121.09,47.788L121.09,113.497C121.09,117.69,117.69,121.09,113.497,121.09ZM113.497,129.799C122.5,129.799,129.799,122.5,129.799,113.497L129.799,47.788C129.799,46.633,129.34,45.526,128.524,44.709L98.656,14.841C97.839,14.025,96.732,13.566,95.577,13.566L29.868,13.566C20.864,13.566,13.566,20.864,13.566,29.868L13.566,113.497C13.566,122.5,20.864,129.799,29.868,129.799L113.497,129.799Z"/>
  <path stroke-linecap="round" stroke-width="1.62px" stroke-linejoin="round" fill-opacity="1" fill="#000000" stroke-opacity="1" stroke-dasharray="none" points="17 21 17 13 7 13 7 21" fill-rule="nonzero" stroke="none" stroke-miterlimit="4" d="M105.905,125.444L105.905,77.656C105.905,75.251,103.955,73.301,101.55,73.301L41.815,73.301C39.41,73.301,37.46,75.251,37.46,77.656L37.46,125.444C37.46,127.849,39.41,129.799,41.815,129.799C44.22,129.799,46.169,127.849,46.169,125.444L46.169,77.656L41.815,82.011L101.55,82.011L97.195,77.656L97.195,125.444C97.195,127.849,99.145,129.799,101.55,129.799C103.955,129.799,105.905,127.849,105.905,125.444Z"/>
  <path stroke="none" points="7 3 7 8 15 8" stroke-linejoin="round" fill="#000000" stroke-miterlimit="4" stroke-opacity="1" fill-rule="nonzero" fill-opacity="1" stroke-linecap="round" stroke-width="1.62px" stroke-dasharray="none" d="M37.46,17.921L37.46,47.788C37.46,50.193,39.41,52.143,41.815,52.143L89.603,52.143C92.008,52.143,93.958,50.193,93.958,47.788C93.958,45.383,92.008,43.434,89.603,43.434L41.815,43.434L46.169,47.788L46.169,17.921C46.169,15.516,44.22,13.566,41.815,13.566C39.41,13.566,37.46,15.516,37.46,17.921Z"/>
</g>
  <g id="Light-L" transform="matrix(1.0,0.0,0.0,1.0,1082.737547626676,1449.0875671579258)">  <path fill-opacity="1" stroke-dasharray="none" stroke="none" stroke-opacity="1" fill-rule="nonzero" stroke-width="1.62px" fill="#000000" stroke-linejoin="round" stroke-miterlimit="4" stroke-linecap="round" d="M113.497,121.815L29.868,121.815C25.274,121.815,21.55,118.091,21.55,113.497L21.55,29.868C21.55,25.274,25.274,21.55,29.868,21.55L95.577,21.55L93.011,20.487L122.878,50.354L121.815,47.788L121.815,113.497C121.815,118.091,118.091,121.815,113.497,121.815ZM113.497,129.073C122.1,129.073,129.073,122.1,129.073,113.497L129.073,47.788C129.073,46.826,128.691,45.903,128.01,45.222L98.143,15.355C97.462,14.674,96.539,14.292,95.577,14.292L29.868,14.292C21.265,14.292,14.292,21.265,14.292,29.868L14.292,113.497C14.292,122.1,21.265,129.073,29.868,129.073L113.497,129.073Z"/>
  <path stroke="none" stroke-opacity="1" stroke-linejoin="round" stroke-linecap="round" stroke-miterlimit="4" stroke-width="1.62px" points="17 21 17 13 7 13 7 21" fill-rule="nonzero" fill="#000000" stroke-dasharray="none" fill-opacity="1" d="M105.179,125.444L105.179,77.656C105.179,75.652,103.554,74.027,101.55,74.027L41.815,74.027C39.811,74.027,38.186,75.652,38.186,77.656L38.186,125.444C38.186,127.448,39.811,129.073,41.815,129.073C43.819,129.073,45.444,127.448,45.444,125.444L45.444,77.656L41.815,81.285L101.55,81.285L97.921,77.656L97.921,125.444C97.921,127.448,99.546,129.073,101.55,129.073C103.554,129.073,105.179,127.448,105.179,125.444Z"/>
  <path stroke-dasharray="none" stroke-width="1.62px" stroke-linecap="round" fill="#000000" fill-opacity="1" stroke-miterlimit="4" stroke="none" fill-rule="nonzero" points="7 3 7 8 15 8" stroke-opacity="1" stroke-linejoin="round" d="M38.186,17.921L38.186,47.788C38.186,49.793,39.811,51.417,41.815,51.417L89.603,51.417C91.607,51.417,93.232,49.793,93.232,47.788C93.232,45.784,91.607,44.159,89.603,44.159L41.815,44.159L45.444,47.788L45.444,17.921C45.444,15.916,43.819,14.292,41.815,14.292C39.811,14.292,38.186,15.916,38.186,17.921Z"/>
</g>
  <g id="Thin-L" transform="matrix(1.0,0.0,0.0,1.0,786.0275476266759,1449.0875671579258)">  <path fill="#000000" stroke-linecap="round" fill-opacity="1" stroke-width="1.62px" stroke-dasharray="none" stroke-miterlimit="4" stroke-opacity="1" stroke="none" fill-rule="nonzero" stroke-linejoin="round" d="M113.497,122.541L29.868,122.541C24.873,122.541,20.824,118.492,20.824,113.497L20.824,29.868C20.824,24.873,24.873,20.824,29.868,20.824L95.577,20.824L93.524,19.973L123.391,49.841L122.541,47.788L122.541,113.497C122.541,118.492,118.492,122.541,113.497,122.541ZM113.497,128.347C121.699,128.347,128.347,121.699,128.347,113.497L128.347,47.788C128.347,47.018,128.042,46.28,127.497,45.735L97.629,15.868C97.085,15.323,96.347,15.017,95.577,15.017L29.868,15.017C21.666,15.017,15.017,21.666,15.017,29.868L15.017,113.497C15.017,121.699,21.666,128.347,29.868,128.347L113.497,128.347Z"/>
  <path points="17 21 17 13 7 13 7 21" stroke-dasharray="none" stroke-width="1.62px" stroke-opacity="1" fill="#000000" stroke-linejoin="round" fill-rule="nonzero" fill-opacity="1" stroke-linecap="round" stroke-miterlimit="4" stroke="none" d="M104.453,125.444L104.453,77.656C104.453,76.053,103.154,74.753,101.55,74.753L41.815,74.753C40.211,74.753,38.912,76.053,38.912,77.656L38.912,125.444C38.912,127.048,40.211,128.347,41.815,128.347C43.418,128.347,44.718,127.048,44.718,125.444L44.718,77.656L41.815,80.559L101.55,80.559L98.647,77.656L98.647,125.444C98.647,127.048,99.947,128.347,101.55,128.347C103.154,128.347,104.453,127.048,104.453,125.444Z"/>
  <path fill-rule="nonzero" stroke="none" stroke-linejoin="round" stroke-width="1.62px" fill-opacity="1" stroke-miterlimit="4" stroke-opacity="1" stroke-linecap="round" fill="#000000" stroke-dasharray="none" points="7 3 7 8 15 8" d="M38.912,17.921L38.912,47.788C38.912,49.392,40.211,50.691,41.815,50.691L89.603,50.691C91.206,50.691,92.506,49.392,92.506,47.788C92.506,46.185,91.206,44.885,89.603,44.885L41.815,44.885L44.718,47.788L44.718,17.921C44.718,16.317,43.418,15.017,41.815,15.017C40.211,15.017,38.912,16.317,38.912,17.921Z"/>
</g>
  <g id="Ultralight-L" transform="matrix(1.0,0.0,0.0,1.0,489.3175476266759,1449.0875671579258)">  <path stroke-width="1.62px" stroke-linejoin="round" stroke-dasharray="none" stroke="none" fill="#000000" fill-rule="nonzero" fill-opacity="1" stroke-opacity="1" stroke-linecap="round" stroke-miterlimit="4" d="M113.497,123.267L29.868,123.267C24.472,123.267,20.098,118.893,20.098,113.497L20.098,29.868C20.098,24.472,24.472,20.098,29.868,20.098L95.577,20.098L94.037,19.46L123.905,49.328L123.267,47.788L123.267,113.497C123.267,118.893,118.893,123.267,113.497,123.267ZM113.497,127.622C121.298,127.622,127.622,121.298,127.622,113.497L127.622,47.788C127.622,47.211,127.392,46.657,126.984,46.249L97.116,16.381C96.708,15.973,96.154,15.743,95.577,15.743L29.868,15.743C22.067,15.743,15.743,22.067,15.743,29.868L15.743,113.497C15.743,121.298,22.067,127.622,29.868,127.622L113.497,127.622Z"/>
  <path stroke-linejoin="round" stroke-width="1.62px" stroke-linecap="round" fill="#000000" fill-opacity="1" stroke="none" stroke-opacity="1" points="17 21 17 13 7 13 7 21" stroke-miterlimit="4" fill-rule="nonzero" stroke-dasharray="none" d="M103.727,125.444L103.727,77.656C103.727,76.453,102.753,75.479,101.55,75.479L41.815,75.479C40.612,75.479,39.637,76.453,39.637,77.656L39.637,125.444C39.637,126.647,40.612,127.622,41.815,127.622C43.017,127.622,43.992,126.647,43.992,125.444L43.992,77.656L41.815,79.833L101.55,79.833L99.373,77.656L99.373,125.444C99.373,126.647,100.348,127.622,101.55,127.622C102.753,127.622,103.727,126.647,103.727,125.444Z"/>
  <path points="7 3 7 8 15 8" stroke-linejoin="round" stroke="none" stroke-linecap="round" stroke-miterlimit="4" stroke-opacity="1" fill-opacity="1" stroke-width="1.62px" fill-rule="nonzero" stroke-dasharray="none" fill="#000000" d="M39.637,17.921L39.637,47.788C39.637,48.991,40.612,49.966,41.815,49.966L89.603,49.966C90.806,49.966,91.78,48.991,91.78,47.788C91.78,46.586,90.806,45.611,89.603,45.611L41.815,45.611L43.992,47.788L43.992,17.921C43.992,16.718,43.017,15.743,41.815,15.743C40.612,15.743,39.637,16.718,39.637,17.921Z"/>
</g>
  <g id="Black-M" transform="matrix(1.0,0.0,0.0,1.0,2879.112207462539,1035.2022269937895)">  <path stroke-width="1.62px" stroke-miterlimit="4" stroke-linecap="round" stroke-dasharray="none" stroke-opacity="1" fill-opacity="1" stroke="none" stroke-linejoin="round" fill="#000000" fill-rule="nonzero" d="M87.982,92.18L23.153,92.18C20.835,92.18,18.956,90.301,18.956,87.982L18.956,23.153C18.956,20.835,20.835,18.956,23.153,18.956L74.09,18.956L70.51,17.472L93.663,40.626L92.18,37.045L92.18,87.982C92.18,90.301,90.301,92.18,87.982,92.18ZM87.982,102.307C95.894,102.307,102.307,95.894,102.307,87.982L102.307,37.045C102.307,35.702,101.774,34.414,100.824,33.465L77.671,10.311C76.721,9.362,75.433,8.828,74.09,8.828L23.153,8.828C15.242,8.828,8.828,15.242,8.828,23.153L8.828,87.982C8.828,95.894,15.242,102.307,23.153,102.307L87.982,102.307Z"/>
  <path fill="#000000" fill-opacity="1" stroke-width="1.62px" stroke-miterlimit="4" stroke-dasharray="none" stroke-opacity="1" stroke-linejoin="round" fill-rule="nonzero" stroke="none" points="17 21 17 13 7 13 7 21" stroke-linecap="round" d="M83.785,97.244L83.785,60.198C83.785,57.402,81.518,55.135,78.721,55.135L32.415,55.135C29.618,55.135,27.351,57.402,27.351,60.198L27.351,97.244C27.351,100.04,29.618,102.307,32.415,102.307C35.211,102.307,37.478,100.04,37.478,97.244L37.478,60.198L32.415,65.262L78.721,65.262L73.657,60.198L73.657,97.244C73.657,100.04,75.924,102.307,78.721,102.307C81.518,102.307,83.785,100.04,83.785,97.244Z"/>
  <path points="7 3 7 8 15 8" stroke-dasharray="none" stroke-opacity="1" stroke-width="1.62px" stroke-linejoin="round" fill="#000000" stroke="none" fill-opacity="1" stroke-miterlimit="4" fill-rule="nonzero" stroke-linecap="round" d="M27.351,13.892L27.351,37.045C27.351,39.842,29.618,42.109,32.415,42.109L69.46,42.109C72.256,42.109,74.523,39.842,74.523,37.045C74.523,34.249,72.256,31.982,69.46,31.982L32.415,31.982L37.478,37.045L37.478,13.892C37.478,11.095,35.211,8.828,32.415,8.828C29.618,8.828,27.351,11.095,27.351,13.892Z"/>
</g>
  <g id="Heavy-M" transform="matrix(1.0,0.0,0.0,1.0,2582.402207462539,1035.2022269937895)">  <path stroke-miterlimit="4" stroke-linecap="round" fill="#000000" fill-rule="nonzero" stroke-width="1.62px" stroke="none" fill-opacity="1" stroke-opacity="1" stroke-linejoin="round" stroke-dasharray="none" d="M87.982,92.518L23.153,92.518C20.648,92.518,18.618,90.487,18.618,87.982L18.618,23.153C18.618,20.648,20.648,18.618,23.153,18.618L74.09,18.618L70.749,17.234L93.902,40.387L92.518,37.045L92.518,87.982C92.518,90.487,90.487,92.518,87.982,92.518ZM87.982,101.97C95.707,101.97,101.97,95.707,101.97,87.982L101.97,37.045C101.97,35.792,101.472,34.59,100.585,33.703L77.432,10.55C76.546,9.664,75.344,9.166,74.09,9.166L23.153,9.166C15.428,9.166,9.166,15.428,9.166,23.153L9.166,87.982C9.166,95.707,15.428,101.97,23.153,101.97L87.982,101.97Z"/>
  <path stroke-miterlimit="4" stroke-linecap="round" points="17 21 17 13 7 13 7 21" stroke-opacity="1" stroke-dasharray="none" stroke="none" fill-opacity="1" stroke-linejoin="round" fill-rule="nonzero" stroke-width="1.62px" fill="#000000" d="M83.447,97.244L83.447,60.198C83.447,57.588,81.331,55.472,78.721,55.472L32.415,55.472C29.804,55.472,27.689,57.588,27.689,60.198L27.689,97.244C27.689,99.854,29.804,101.97,32.415,101.97C35.025,101.97,37.141,99.854,37.141,97.244L37.141,60.198L32.415,64.924L78.721,64.924L73.995,60.198L73.995,97.244C73.995,99.854,76.111,101.97,78.721,101.97C81.331,101.97,83.447,99.854,83.447,97.244Z"/>
  <path stroke-width="1.62px" stroke-linejoin="round" stroke-opacity="1" fill-rule="nonzero" stroke-linecap="round" stroke="none" points="7 3 7 8 15 8" fill-opacity="1" stroke-dasharray="none" fill="#000000" stroke-miterlimit="4" d="M27.689,13.892L27.689,37.045C27.689,39.655,29.804,41.771,32.415,41.771L69.46,41.771C72.07,41.771,74.186,39.655,74.186,37.045C74.186,34.435,72.07,32.319,69.46,32.319L32.415,32.319L37.141,37.045L37.141,13.892C37.141,11.282,35.025,9.166,32.415,9.166C29.804,9.166,27.689,11.282,27.689,13.892Z"/>
</g>
  <g id="Bold-M" transform="matrix(1.0,0.0,0.0,1.0,2285.692207462539,1035.2022269937895)">  <path stroke="none" stroke-linecap="round" stroke-linejoin="round" fill="#000000" stroke-opacity="1" stroke-miterlimit="4" fill-rule="nonzero" stroke-width="1.62px" stroke-dasharray="none" fill-opacity="1" d="M87.982,92.855L23.153,92.855C20.462,92.855,18.28,90.674,18.28,87.982L18.28,23.153C18.28,20.462,20.462,18.28,23.153,18.28L74.09,18.28L70.987,16.995L94.141,40.148L92.855,37.045L92.855,87.982C92.855,90.674,90.674,92.855,87.982,92.855ZM87.982,101.632C95.521,101.632,101.632,95.521,101.632,87.982L101.632,37.045C101.632,35.881,101.17,34.765,100.347,33.942L77.194,10.789C76.371,9.966,75.254,9.503,74.09,9.503L23.153,9.503C15.615,9.503,9.503,15.615,9.503,23.153L9.503,87.982C9.503,95.521,15.615,101.632,23.153,101.632L87.982,101.632Z"/>
  <path fill-opacity="1" stroke-linecap="round" points="17 21 17 13 7 13 7 21" stroke-opacity="1" stroke-linejoin="round" stroke="none" stroke-width="1.62px" fill="#000000" stroke-miterlimit="4" stroke-dasharray="none" fill-rule="nonzero" d="M83.11,97.244L83.11,60.198C83.11,57.775,81.145,55.81,78.721,55.81L32.415,55.81C29.991,55.81,28.026,57.775,28.026,60.198L28.026,97.244C28.026,99.667,29.991,101.632,32.415,101.632C34.838,101.632,36.803,99.667,36.803,97.244L36.803,60.198L32.415,64.587L78.721,64.587L74.333,60.198L74.333,97.244C74.333,99.667,76.297,101.632,78.721,101.632C81.145,101.632,83.11,99.667,83.11,97.244Z"/>
  <path stroke-width="1.62px" fill-opacity="1" fill="#000000" points="7 3 7 8 15 8" stroke="none" stroke-opacity="1" stroke-dasharray="none" stroke-miterlimit="4" fill-rule="nonzero" stroke-linecap="round" stroke-linejoin="round" d="M28.026,13.892L28.026,37.045C28.026,39.469,29.991,41.434,32.415,41.434L69.46,41.434C71.883,41.434,73.848,39.469,73.848,37.045C73.848,34.622,71.883,32.657,69.46,32.657L32.415,32.657L36.803,37.045L36.803,13.892C36.803,11.468,34.838,9.503,32.415,9.503C29.991,9.503,28.026,11.468,28.026,13.892Z"/>
</g>
  <g id="Semibold-M" transform="matrix(1.0,0.0,0.0,1.0,1988.9822074625395,1035.2022269937895)">  <path stroke-miterlimit="4" stroke-opacity="1" fill-opacity="1" stroke-linejoin="round" fill-rule="nonzero" stroke-dasharray="none" stroke-width="1.62px" fill="#000000" stroke="none" stroke-linecap="round" d="M87.982,93.193L23.153,93.193C20.276,93.193,17.943,90.86,17.943,87.982L17.943,23.153C17.943,20.276,20.276,17.943,23.153,17.943L74.09,17.943L71.226,16.756L94.379,39.91L93.193,37.045L93.193,87.982C93.193,90.86,90.86,93.193,87.982,93.193ZM87.982,101.295C95.334,101.295,101.295,95.334,101.295,87.982L101.295,37.045C101.295,35.971,100.868,34.94,100.108,34.181L76.955,11.028C76.195,10.268,75.165,9.841,74.09,9.841L23.153,9.841C15.801,9.841,9.841,15.801,9.841,23.153L9.841,87.982C9.841,95.334,15.801,101.295,23.153,101.295L87.982,101.295Z"/>
  <path stroke-miterlimit="4" stroke="none" stroke-opacity="1" points="17 21 17 13 7 13 7 21" fill-rule="nonzero" stroke-width="1.62px" fill-opacity="1" stroke-dasharray="none" stroke-linecap="round" stroke-linejoin="round" fill="#000000" d="M82.772,97.244L82.772,60.198C82.772,57.961,80.958,56.148,78.721,56.148L32.415,56.148C30.177,56.148,28.364,57.961,28.364,60.198L28.364,97.244C28.364,99.481,30.177,101.295,32.415,101.295C34.652,101.295,36.465,99.481,36.465,97.244L36.465,60.198L32.415,64.249L78.721,64.249L74.67,60.198L74.67,97.244C74.67,99.481,76.484,101.295,78.721,101.295C80.958,101.295,82.772,99.481,82.772,97.244Z"/>
  <path stroke-linecap="round" stroke-miterlimit="4" points="7 3 7 8 15 8" fill-rule="nonzero" stroke="none" stroke-dasharray="none" stroke-linejoin="round" stroke-width="1.62px" fill="#000000" stroke-opacity="1" fill-opacity="1" d="M28.364,13.892L28.364,37.045C28.364,39.282,30.177,41.096,32.415,41.096L69.46,41.096C71.697,41.096,73.511,39.282,73.511,37.045C73.511,34.808,71.697,32.994,69.46,32.994L32.415,32.994L36.465,37.045L36.465,13.892C36.465,11.655,34.652,9.841,32.415,9.841C30.177,9.841,28.364,11.655,28.364,13.892Z"/>
</g>
  <g id="Medium-M" transform="matrix(1.0,0.0,0.0,1.0,1692.2722074625394,1035.2022269937895)">  <path stroke-width="1.62px" stroke-dasharray="none" stroke-miterlimit="4" stroke-linejoin="round" fill-opacity="1" fill="#000000" stroke-linecap="round" stroke="none" fill-rule="nonzero" stroke-opacity="1" d="M87.982,93.53L23.153,93.53C20.089,93.53,17.605,91.046,17.605,87.982L17.605,23.153C17.605,20.089,20.089,17.605,23.153,17.605L74.09,17.605L71.465,16.518L94.618,39.671L93.53,37.045L93.53,87.982C93.53,91.046,91.046,93.53,87.982,93.53ZM87.982,100.957C95.148,100.957,100.957,95.148,100.957,87.982L100.957,37.045C100.957,36.06,100.566,35.116,99.869,34.419L76.716,11.266C76.02,10.57,75.075,10.179,74.09,10.179L23.153,10.179C15.988,10.179,10.179,15.988,10.179,23.153L10.179,87.982C10.179,95.148,15.988,100.957,23.153,100.957L87.982,100.957Z"/>
  <path fill-rule="nonzero" stroke-opacity="1" stroke-linecap="round" stroke-width="1.62px" stroke-linejoin="round" points="17 21 17 13 7 13 7 21" stroke="none" fill-opacity="1" stroke-dasharray="none" stroke-miterlimit="4" fill="#000000" d="M82.434,97.244L82.434,60.198C82.434,58.148,80.772,56.485,78.721,56.485L32.415,56.485C30.364,56.485,28.701,58.148,28.701,60.198L28.701,97.244C28.701,99.294,30.364,100.957,32.415,100.957C34.465,100.957,36.128,99.294,36.128,97.244L36.128,60.198L32.415,63.912L78.721,63.912L75.008,60.198L75.008,97.244C75.008,99.294,76.67,100.957,78.721,100.957C80.772,100.957,82.434,99.294,82.434,97.244Z"/>
  <path fill="#000000" stroke-linejoin="round" fill-opacity="1" stroke-miterlimit="4" stroke-width="1.62px" stroke-opacity="1" stroke="none" points="7 3 7 8 15 8" fill-rule="nonzero" stroke-dasharray="none" stroke-linecap="round" d="M28.701,13.892L28.701,37.045C28.701,39.096,30.364,40.759,32.415,40.759L69.46,40.759C71.511,40.759,73.173,39.096,73.173,37.045C73.173,34.994,71.511,33.332,69.46,33.332L32.415,33.332L36.128,37.045L36.128,13.892C36.128,11.841,34.465,10.179,32.415,10.179C30.364,10.179,28.701,11.841,28.701,13.892Z"/>
</g>
  <g id="Regular-M" transform="matrix(1.0,0.0,0.0,1.0,1395.5622074625394,1035.2022269937895)">  <path stroke-linecap="round" fill-opacity="1" stroke-dasharray="none" stroke-linejoin="round" fill="#000000" stroke="none" stroke-width="1.62px" stroke-opacity="1" stroke-miterlimit="4" fill-rule="nonzero" d="M87.982,93.868L23.153,93.868C19.903,93.868,17.268,91.233,17.268,87.982L17.268,23.153C17.268,19.903,19.903,17.268,23.153,17.268L74.09,17.268L71.703,16.279L94.857,39.432L93.868,37.045L93.868,87.982C93.868,91.233,91.233,93.868,87.982,93.868ZM87.982,100.619C94.962,100.619,100.619,94.962,100.619,87.982L100.619,37.045C100.619,36.15,100.264,35.291,99.631,34.658L76.477,11.505C75.844,10.872,74.986,10.516,74.09,10.516L23.153,10.516C16.174,10.516,10.516,16.174,10.516,23.153L10.516,87.982C10.516,94.962,16.174,100.619,23.153,100.619L87.982,100.619Z"/>
  <path stroke-linecap="round" stroke-width="1.62px" stroke-linejoin="round" fill-opacity="1" fill="#000000" stroke-opacity="1" stroke-dasharray="none" points="17 21 17 13 7 13 7 21" fill-rule="nonzero" stroke="none" stroke-miterlimit="4" d="M82.097,97.244L82.097,60.198C82.097,58.334,80.585,56.823,78.721,56.823L32.415,56.823C30.55,56.823,29.039,58.334,29.039,60.198L29.039,97.244C29.039,99.108,30.55,100.619,32.415,100.619C34.279,100.619,35.79,99.108,35.79,97.244L35.79,60.198L32.415,63.574L78.721,63.574L75.345,60.198L75.345,97.244C75.345,99.108,76.857,100.619,78.721,100.619C80.585,100.619,82.097,99.108,82.097,97.244Z"/>
  <path stroke="none" points="7 3 7 8 15 8" stroke-linejoin="round" fill="#000000" stroke-miterlimit="4" stroke-opacity="1" fill-rule="nonzero" fill-opacity="1" stroke-linecap="round" stroke-width="1.62px" stroke-dasharray="none" d="M29.039,13.892L29.039,37.045C29.039,38.91,30.55,40.421,32.415,40.421L69.46,40.421C71.324,40.421,72.835,38.91,72.835,37.045C72.835,35.181,71.324,33.669,69.46,33.669L32.415,33.669L35.79,37.045L35.79,13.892C35.79,12.028,34.279,10.516,32.415,10.516C30.55,10.516,29.039,12.028,29.039,13.892Z"/>
</g>
  <g id="Light-M" transform="matrix(1.0,0.0,0.0,1.0,1098.8522074625396,1035.2022269937895)">  <path fill-opacity="1" stroke-dasharray="none" stroke="none" stroke-opacity="1" fill-rule="nonzero" stroke-width="1.62px" fill="#000000" stroke-linejoin="round" stroke-miterlimit="4" stroke-linecap="round" d="M87.982,94.431L23.153,94.431C19.592,94.431,16.705,91.544,16.705,87.982L16.705,23.153C16.705,19.592,19.592,16.705,23.153,16.705L74.09,16.705L72.101,15.881L95.254,39.034L94.431,37.045L94.431,87.982C94.431,91.544,91.544,94.431,87.982,94.431ZM87.982,100.057C94.651,100.057,100.057,94.651,100.057,87.982L100.057,37.045C100.057,36.299,99.76,35.584,99.233,35.056L76.08,11.903C75.552,11.375,74.836,11.079,74.09,11.079L23.153,11.079C16.485,11.079,11.079,16.485,11.079,23.153L11.079,87.982C11.079,94.651,16.485,100.057,23.153,100.057L87.982,100.057Z"/>
  <path stroke="none" stroke-opacity="1" stroke-linejoin="round" stroke-linecap="round" stroke-miterlimit="4" stroke-width="1.62px" points="17 21 17 13 7 13 7 21" fill-rule="nonzero" fill="#000000" stroke-dasharray="none" fill-opacity="1" d="M81.534,97.244L81.534,60.198C81.534,58.645,80.275,57.385,78.721,57.385L32.415,57.385C30.861,57.385,29.601,58.645,29.601,60.198L29.601,97.244C29.601,98.797,30.861,100.057,32.415,100.057C33.968,100.057,35.228,98.797,35.228,97.244L35.228,60.198L32.415,63.012L78.721,63.012L75.908,60.198L75.908,97.244C75.908,98.797,77.167,100.057,78.721,100.057C80.275,100.057,81.534,98.797,81.534,97.244Z"/>
  <path stroke-dasharray="none" stroke-width="1.62px" stroke-linecap="round" fill="#000000" fill-opacity="1" stroke-miterlimit="4" stroke="none" fill-rule="nonzero" points="7 3 7 8 15 8" stroke-opacity="1" stroke-linejoin="round" d="M29.601,13.892L29.601,37.045C29.601,38.599,30.861,39.858,32.415,39.858L69.46,39.858C71.013,39.858,72.273,38.599,72.273,37.045C72.273,35.492,71.013,34.232,69.46,34.232L32.415,34.232L35.228,37.045L35.228,13.892C35.228,12.338,33.968,11.079,32.415,11.079C30.861,11.079,29.601,12.338,29.601,13.892Z"/>
</g>
  <g id="Thin-M" transform="matrix(1.0,0.0,0.0,1.0,802.1422074625394,1035.2022269937895)">  <path fill="#000000" stroke-linecap="round" fill-opacity="1" stroke-width="1.62px" stroke-dasharray="none" stroke-miterlimit="4" stroke-opacity="1" stroke="none" fill-rule="nonzero" stroke-linejoin="round" d="M87.982,94.993L23.153,94.993C19.281,94.993,16.142,91.854,16.142,87.982L16.142,23.153C16.142,19.281,19.281,16.142,23.153,16.142L74.09,16.142L72.499,15.483L95.652,38.637L94.993,37.045L94.993,87.982C94.993,91.854,91.854,94.993,87.982,94.993ZM87.982,99.494C94.34,99.494,99.494,94.34,99.494,87.982L99.494,37.045C99.494,36.448,99.257,35.876,98.835,35.454L75.682,12.301C75.26,11.879,74.687,11.641,74.09,11.641L23.153,11.641C16.795,11.641,11.641,16.795,11.641,23.153L11.641,87.982C11.641,94.34,16.795,99.494,23.153,99.494L87.982,99.494Z"/>
  <path points="17 21 17 13 7 13 7 21" stroke-dasharray="none" stroke-width="1.62px" stroke-opacity="1" fill="#000000" stroke-linejoin="round" fill-rule="nonzero" fill-opacity="1" stroke-linecap="round" stroke-miterlimit="4" stroke="none" d="M80.972,97.244L80.972,60.198C80.972,58.956,79.964,57.948,78.721,57.948L32.415,57.948C31.172,57.948,30.164,58.956,30.164,60.198L30.164,97.244C30.164,98.487,31.172,99.494,32.415,99.494C33.657,99.494,34.665,98.487,34.665,97.244L34.665,60.198L32.415,62.449L78.721,62.449L76.471,60.198L76.471,97.244C76.471,98.487,77.478,99.494,78.721,99.494C79.964,99.494,80.972,98.487,80.972,97.244Z"/>
  <path fill-rule="nonzero" stroke="none" stroke-linejoin="round" stroke-width="1.62px" fill-opacity="1" stroke-miterlimit="4" stroke-opacity="1" stroke-linecap="round" fill="#000000" stroke-dasharray="none" points="7 3 7 8 15 8" d="M30.164,13.892L30.164,37.045C30.164,38.288,31.172,39.296,32.415,39.296L69.46,39.296C70.703,39.296,71.71,38.288,71.71,37.045C71.71,35.802,70.703,34.795,69.46,34.795L32.415,34.795L34.665,37.045L34.665,13.892C34.665,12.649,33.657,11.641,32.415,11.641C31.172,11.641,30.164,12.649,30.164,13.892Z"/>
</g>
  <g id="Ultralight-M" transform="matrix(1.0,0.0,0.0,1.0,505.4322074625394,1035.2022269937895)">  <path stroke-width="1.62px" stroke-linejoin="round" stroke-dasharray="none" stroke="none" fill="#000000" fill-rule="nonzero" fill-opacity="1" stroke-opacity="1" stroke-linecap="round" stroke-miterlimit="4" d="M87.982,95.556L23.153,95.556C18.971,95.556,15.58,92.165,15.58,87.982L15.58,23.153C15.58,18.971,18.971,15.58,23.153,15.58L74.09,15.58L72.897,15.085L96.05,38.239L95.556,37.045L95.556,87.982C95.556,92.165,92.165,95.556,87.982,95.556ZM87.982,98.932C94.029,98.932,98.932,94.029,98.932,87.982L98.932,37.045C98.932,36.598,98.754,36.168,98.437,35.852L75.284,12.698C74.967,12.382,74.538,12.204,74.09,12.204L23.153,12.204C17.106,12.204,12.204,17.106,12.204,23.153L12.204,87.982C12.204,94.029,17.106,98.932,23.153,98.932L87.982,98.932Z"/>
  <path stroke-linejoin="round" stroke-width="1.62px" stroke-linecap="round" fill="#000000" fill-opacity="1" stroke="none" stroke-opacity="1" points="17 21 17 13 7 13 7 21" stroke-miterlimit="4" fill-rule="nonzero" stroke-dasharray="none" d="M80.409,97.244L80.409,60.198C80.409,59.266,79.653,58.511,78.721,58.511L32.415,58.511C31.482,58.511,30.727,59.266,30.727,60.198L30.727,97.244C30.727,98.176,31.482,98.932,32.415,98.932C33.347,98.932,34.102,98.176,34.102,97.244L34.102,60.198L32.415,61.886L78.721,61.886L77.033,60.198L77.033,97.244C77.033,98.176,77.789,98.932,78.721,98.932C79.653,98.932,80.409,98.176,80.409,97.244Z"/>
  <path points="7 3 7 8 15 8" stroke-linejoin="round" stroke="none" stroke-linecap="round" stroke-miterlimit="4" stroke-opacity="1" fill-opacity="1" stroke-width="1.62px" fill-rule="nonzero" stroke-dasharray="none" fill="#000000" d="M30.727,13.892L30.727,37.045C30.727,37.977,31.482,38.733,32.415,38.733L69.46,38.733C70.392,38.733,71.148,37.977,71.148,37.045C71.148,36.113,70.392,35.357,69.46,35.357L32.415,35.357L34.102,37.045L34.102,13.892C34.102,12.96,33.347,12.204,32.415,12.204C31.482,12.204,30.727,12.96,30.727,13.892Z"/>
</g>
  <g id="Black-S" transform="matrix(1.0,0.0,0.0,1.0,2891.1704184431683,617.2604379744184)">  <path stroke-width="1.62px" stroke-miterlimit="4" stroke-linecap="round" stroke-dasharray="none" stroke-opacity="1" fill-opacity="1" stroke="none" stroke-linejoin="round" fill="#000000" fill-rule="nonzero" d="M68.89,72.177L18.129,72.177C16.314,72.177,14.842,70.705,14.842,68.89L14.842,18.129C14.842,16.314,16.314,14.842,18.129,14.842L58.013,14.842L55.209,13.681L73.338,31.81L72.177,29.006L72.177,68.89C72.177,70.705,70.705,72.177,68.89,72.177ZM68.89,80.107C75.085,80.107,80.107,75.085,80.107,68.89L80.107,29.006C80.107,27.955,79.689,26.946,78.945,26.203L60.816,8.074C60.073,7.33,59.064,6.913,58.013,6.913L18.129,6.913C11.934,6.913,6.913,11.934,6.913,18.129L6.913,68.89C6.913,75.085,11.934,80.107,18.129,80.107L68.89,80.107Z"/>
  <path fill="#000000" fill-opacity="1" stroke-width="1.62px" stroke-miterlimit="4" stroke-dasharray="none" stroke-opacity="1" stroke-linejoin="round" fill-rule="nonzero" stroke="none" points="17 21 17 13 7 13 7 21" stroke-linecap="round" d="M65.603,76.142L65.603,47.135C65.603,44.946,63.828,43.171,61.639,43.171L25.381,43.171C23.191,43.171,21.416,44.946,21.416,47.135L21.416,76.142C21.416,78.331,23.191,80.107,25.381,80.107C27.57,80.107,29.345,78.331,29.345,76.142L29.345,47.135L25.381,51.1L61.639,51.1L57.674,47.135L57.674,76.142C57.674,78.331,59.449,80.107,61.639,80.107C63.828,80.107,65.603,78.331,65.603,76.142Z"/>
  <path points="7 3 7 8 15 8" stroke-dasharray="none" stroke-opacity="1" stroke-width="1.62px" stroke-linejoin="round" fill="#000000" stroke="none" fill-opacity="1" stroke-miterlimit="4" fill-rule="nonzero" stroke-linecap="round" d="M21.416,10.877L21.416,29.006C21.416,31.196,23.191,32.971,25.381,32.971L54.387,32.971C56.577,32.971,58.352,31.196,58.352,29.006C58.352,26.817,56.577,25.042,54.387,25.042L25.381,25.042L29.345,29.006L29.345,10.877C29.345,8.688,27.57,6.913,25.381,6.913C23.191,6.913,21.416,8.688,21.416,10.877Z"/>
</g>
  <g id="Heavy-S" transform="matrix(1.0,0.0,0.0,1.0,2594.4604184431682,617.2604379744184)">  <path stroke-miterlimit="4" stroke-linecap="round" fill="#000000" fill-rule="nonzero" stroke-width="1.62px" stroke="none" fill-opacity="1" stroke-opacity="1" stroke-linejoin="round" stroke-dasharray="none" d="M68.89,72.441L18.129,72.441C16.168,72.441,14.578,70.851,14.578,68.89L14.578,18.129C14.578,16.168,16.168,14.578,18.129,14.578L58.013,14.578L55.396,13.494L73.525,31.623L72.441,29.006L72.441,68.89C72.441,70.851,70.851,72.441,68.89,72.441ZM68.89,79.842C74.939,79.842,79.842,74.939,79.842,68.89L79.842,29.006C79.842,28.025,79.452,27.084,78.758,26.39L60.629,8.261C59.935,7.567,58.994,7.177,58.013,7.177L18.129,7.177C12.08,7.177,7.177,12.08,7.177,18.129L7.177,68.89C7.177,74.939,12.08,79.842,18.129,79.842L68.89,79.842Z"/>
  <path stroke-miterlimit="4" stroke-linecap="round" points="17 21 17 13 7 13 7 21" stroke-opacity="1" stroke-dasharray="none" stroke="none" fill-opacity="1" stroke-linejoin="round" fill-rule="nonzero" stroke-width="1.62px" fill="#000000" d="M65.339,76.142L65.339,47.135C65.339,45.092,63.682,43.435,61.639,43.435L25.381,43.435C23.337,43.435,21.68,45.092,21.68,47.135L21.68,76.142C21.68,78.185,23.337,79.842,25.381,79.842C27.424,79.842,29.081,78.185,29.081,76.142L29.081,47.135L25.381,50.836L61.639,50.836L57.938,47.135L57.938,76.142C57.938,78.185,59.595,79.842,61.639,79.842C63.682,79.842,65.339,78.185,65.339,76.142Z"/>
  <path stroke-width="1.62px" stroke-linejoin="round" stroke-opacity="1" fill-rule="nonzero" stroke-linecap="round" stroke="none" points="7 3 7 8 15 8" fill-opacity="1" stroke-dasharray="none" fill="#000000" stroke-miterlimit="4" d="M21.68,10.877L21.68,29.006C21.68,31.05,23.337,32.707,25.381,32.707L54.387,32.707C56.431,32.707,58.087,31.05,58.087,29.006C58.087,26.963,56.431,25.306,54.387,25.306L25.381,25.306L29.081,29.006L29.081,10.877C29.081,8.834,27.424,7.177,25.381,7.177C23.337,7.177,21.68,8.834,21.68,10.877Z"/>
</g>
  <g id="Bold-S" transform="matrix(1.0,0.0,0.0,1.0,2297.750418443168,617.2604379744184)">  <path stroke="none" stroke-linecap="round" stroke-linejoin="round" fill="#000000" stroke-opacity="1" stroke-miterlimit="4" fill-rule="nonzero" stroke-width="1.62px" stroke-dasharray="none" fill-opacity="1" d="M68.89,72.706L18.129,72.706C16.022,72.706,14.314,70.997,14.314,68.89L14.314,18.129C14.314,16.022,16.022,14.314,18.129,14.314L58.013,14.314L55.583,13.307L73.712,31.436L72.706,29.006L72.706,68.89C72.706,70.997,70.997,72.706,68.89,72.706ZM68.89,79.578C74.793,79.578,79.578,74.793,79.578,68.89L79.578,29.006C79.578,28.095,79.216,27.221,78.572,26.577L60.443,8.448C59.798,7.803,58.924,7.441,58.013,7.441L18.129,7.441C12.226,7.441,7.441,12.226,7.441,18.129L7.441,68.89C7.441,74.793,12.226,79.578,18.129,79.578L68.89,79.578Z"/>
  <path fill-opacity="1" stroke-linecap="round" points="17 21 17 13 7 13 7 21" stroke-opacity="1" stroke-linejoin="round" stroke="none" stroke-width="1.62px" fill="#000000" stroke-miterlimit="4" stroke-dasharray="none" fill-rule="nonzero" d="M65.075,76.142L65.075,47.135C65.075,45.238,63.536,43.699,61.639,43.699L25.381,43.699C23.483,43.699,21.944,45.238,21.944,47.135L21.944,76.142C21.944,78.04,23.483,79.578,25.381,79.578C27.278,79.578,28.817,78.04,28.817,76.142L28.817,47.135L25.381,50.572L61.639,50.572L58.202,47.135L58.202,76.142C58.202,78.04,59.741,79.578,61.639,79.578C63.536,79.578,65.075,78.04,65.075,76.142Z"/>
  <path stroke-width="1.62px" fill-opacity="1" fill="#000000" points="7 3 7 8 15 8" stroke="none" stroke-opacity="1" stroke-dasharray="none" stroke-miterlimit="4" fill-rule="nonzero" stroke-linecap="round" stroke-linejoin="round" d="M21.944,10.877L21.944,29.006C21.944,30.904,23.483,32.443,25.381,32.443L54.387,32.443C56.285,32.443,57.823,30.904,57.823,29.006C57.823,27.109,56.285,25.57,54.387,25.57L25.381,25.57L28.817,29.006L28.817,10.877C28.817,8.98,27.278,7.441,25.381,7.441C23.483,7.441,21.944,8.98,21.944,10.877Z"/>
</g>
  <g id="Semibold-S" transform="matrix(1.0,0.0,0.0,1.0,2001.0404184431684,617.2604379744184)">  <path stroke-miterlimit="4" stroke-opacity="1" fill-opacity="1" stroke-linejoin="round" fill-rule="nonzero" stroke-dasharray="none" stroke-width="1.62px" fill="#000000" stroke="none" stroke-linecap="round" d="M68.89,72.97L18.129,72.97C15.876,72.97,14.049,71.143,14.049,68.89L14.049,18.129C14.049,15.876,15.876,14.049,18.129,14.049L58.013,14.049L55.77,13.12L73.899,31.249L72.97,29.006L72.97,68.89C72.97,71.143,71.143,72.97,68.89,72.97ZM68.89,79.314C74.647,79.314,79.314,74.647,79.314,68.89L79.314,29.006C79.314,28.165,78.979,27.358,78.385,26.764L60.256,8.635C59.661,8.04,58.854,7.706,58.013,7.706L18.129,7.706C12.372,7.706,7.706,12.372,7.706,18.129L7.706,68.89C7.706,74.647,12.372,79.314,18.129,79.314L68.89,79.314Z"/>
  <path stroke-miterlimit="4" stroke="none" stroke-opacity="1" points="17 21 17 13 7 13 7 21" fill-rule="nonzero" stroke-width="1.62px" fill-opacity="1" stroke-dasharray="none" stroke-linecap="round" stroke-linejoin="round" fill="#000000" d="M64.81,76.142L64.81,47.135C64.81,45.384,63.39,43.964,61.639,43.964L25.381,43.964C23.629,43.964,22.209,45.384,22.209,47.135L22.209,76.142C22.209,77.894,23.629,79.314,25.381,79.314C27.132,79.314,28.552,77.894,28.552,76.142L28.552,47.135L25.381,50.307L61.639,50.307L58.467,47.135L58.467,76.142C58.467,77.894,59.887,79.314,61.639,79.314C63.39,79.314,64.81,77.894,64.81,76.142Z"/>
  <path stroke-linecap="round" stroke-miterlimit="4" points="7 3 7 8 15 8" fill-rule="nonzero" stroke="none" stroke-dasharray="none" stroke-linejoin="round" stroke-width="1.62px" fill="#000000" stroke-opacity="1" fill-opacity="1" d="M22.209,10.877L22.209,29.006C22.209,30.758,23.629,32.178,25.381,32.178L54.387,32.178C56.139,32.178,57.559,30.758,57.559,29.006C57.559,27.255,56.139,25.835,54.387,25.835L25.381,25.835L28.552,29.006L28.552,10.877C28.552,9.126,27.132,7.706,25.381,7.706C23.629,7.706,22.209,9.126,22.209,10.877Z"/>
</g>
  <g id="Medium-S" transform="matrix(1.0,0.0,0.0,1.0,1704.3304184431684,617.2604379744184)">  <path stroke-width="1.62px" stroke-dasharray="none" stroke-miterlimit="4" stroke-linejoin="round" fill-opacity="1" fill="#000000" stroke-linecap="round" stroke="none" fill-rule="nonzero" stroke-opacity="1" d="M68.89,73.234L18.129,73.234C15.73,73.234,13.785,71.289,13.785,68.89L13.785,18.129C13.785,15.73,15.73,13.785,18.129,13.785L58.013,13.785L55.957,12.933L74.086,31.062L73.234,29.006L73.234,68.89C73.234,71.289,71.289,73.234,68.89,73.234ZM68.89,79.049C74.501,79.049,79.049,74.501,79.049,68.89L79.049,29.006C79.049,28.235,78.743,27.496,78.198,26.95L60.069,8.821C59.523,8.276,58.784,7.97,58.013,7.97L18.129,7.97C12.518,7.97,7.97,12.518,7.97,18.129L7.97,68.89C7.97,74.501,12.518,79.049,18.129,79.049L68.89,79.049Z"/>
  <path fill-rule="nonzero" stroke-opacity="1" stroke-linecap="round" stroke-width="1.62px" stroke-linejoin="round" points="17 21 17 13 7 13 7 21" stroke="none" fill-opacity="1" stroke-dasharray="none" stroke-miterlimit="4" fill="#000000" d="M64.546,76.142L64.546,47.135C64.546,45.53,63.244,44.228,61.639,44.228L25.381,44.228C23.775,44.228,22.473,45.53,22.473,47.135L22.473,76.142C22.473,77.748,23.775,79.049,25.381,79.049C26.986,79.049,28.288,77.748,28.288,76.142L28.288,47.135L25.381,50.043L61.639,50.043L58.731,47.135L58.731,76.142C58.731,77.748,60.033,79.049,61.639,79.049C63.244,79.049,64.546,77.748,64.546,76.142Z"/>
  <path fill="#000000" stroke-linejoin="round" fill-opacity="1" stroke-miterlimit="4" stroke-width="1.62px" stroke-opacity="1" stroke="none" points="7 3 7 8 15 8" fill-rule="nonzero" stroke-dasharray="none" stroke-linecap="round" d="M22.473,10.877L22.473,29.006C22.473,30.612,23.775,31.914,25.381,31.914L54.387,31.914C55.993,31.914,57.295,30.612,57.295,29.006C57.295,27.401,55.993,26.099,54.387,26.099L25.381,26.099L28.288,29.006L28.288,10.877C28.288,9.272,26.986,7.97,25.381,7.97C23.775,7.97,22.473,9.272,22.473,10.877Z"/>
</g>
  <g id="Regular-S" transform="matrix(1.0,0.0,0.0,1.0,1407.6204184431683,617.2604379744184)">  <path stroke-linecap="round" fill-opacity="1" stroke-dasharray="none" stroke-linejoin="round" fill="#000000" stroke="none" stroke-width="1.62px" stroke-opacity="1" stroke-miterlimit="4" fill-rule="nonzero" d="M68.89,73.499L18.129,73.499C15.584,73.499,13.521,71.435,13.521,68.89L13.521,18.129C13.521,15.584,15.584,13.521,18.129,13.521L58.013,13.521L56.144,12.746L74.273,30.875L73.499,29.006L73.499,68.89C73.499,71.435,71.435,73.499,68.89,73.499ZM68.89,78.785C74.355,78.785,78.785,74.355,78.785,68.89L78.785,29.006C78.785,28.305,78.506,27.633,78.011,27.137L59.882,9.008C59.386,8.513,58.714,8.234,58.013,8.234L18.129,8.234C12.664,8.234,8.234,12.664,8.234,18.129L8.234,68.89C8.234,74.355,12.664,78.785,18.129,78.785L68.89,78.785Z"/>
  <path stroke-linecap="round" stroke-width="1.62px" stroke-linejoin="round" fill-opacity="1" fill="#000000" stroke-opacity="1" stroke-dasharray="none" points="17 21 17 13 7 13 7 21" fill-rule="nonzero" stroke="none" stroke-miterlimit="4" d="M64.282,76.142L64.282,47.135C64.282,45.676,63.098,44.492,61.639,44.492L25.381,44.492C23.921,44.492,22.737,45.676,22.737,47.135L22.737,76.142C22.737,77.602,23.921,78.785,25.381,78.785C26.84,78.785,28.024,77.602,28.024,76.142L28.024,47.135L25.381,49.779L61.639,49.779L58.995,47.135L58.995,76.142C58.995,77.602,60.179,78.785,61.639,78.785C63.098,78.785,64.282,77.602,64.282,76.142Z"/>
  <path stroke="none" points="7 3 7 8 15 8" stroke-linejoin="round" fill="#000000" stroke-miterlimit="4" stroke-opacity="1" fill-rule="nonzero" fill-opacity="1" stroke-linecap="round" stroke-width="1.62px" stroke-dasharray="none" d="M22.737,10.877L22.737,29.006C22.737,30.466,23.921,31.65,25.381,31.65L54.387,31.65C55.847,31.65,57.03,30.466,57.03,29.006C57.03,27.547,55.847,26.363,54.387,26.363L25.381,26.363L28.024,29.006L28.024,10.877C28.024,9.418,26.84,8.234,25.381,8.234C23.921,8.234,22.737,9.418,22.737,10.877Z"/>
</g>
  <g id="Light-S" transform="matrix(1.0,0.0,0.0,1.0,1110.9104184431685,617.2604379744184)">  <path fill-opacity="1" stroke-dasharray="none" stroke="none" stroke-opacity="1" fill-rule="nonzero" stroke-width="1.62px" fill="#000000" stroke-linejoin="round" stroke-miterlimit="4" stroke-linecap="round" d="M68.89,73.939L18.129,73.939C15.341,73.939,13.08,71.679,13.08,68.89L13.08,18.129C13.08,15.341,15.341,13.08,18.129,13.08L58.013,13.08L56.455,12.435L74.584,30.564L73.939,29.006L73.939,68.89C73.939,71.679,71.679,73.939,68.89,73.939ZM68.89,78.344C74.112,78.344,78.344,74.112,78.344,68.89L78.344,29.006C78.344,28.422,78.112,27.862,77.699,27.449L59.57,9.32C59.157,8.907,58.597,8.675,58.013,8.675L18.129,8.675C12.908,8.675,8.675,12.908,8.675,18.129L8.675,68.89C8.675,74.112,12.908,78.344,18.129,78.344L68.89,78.344Z"/>
  <path stroke="none" stroke-opacity="1" stroke-linejoin="round" stroke-linecap="round" stroke-miterlimit="4" stroke-width="1.62px" points="17 21 17 13 7 13 7 21" fill-rule="nonzero" fill="#000000" stroke-dasharray="none" fill-opacity="1" d="M63.841,76.142L63.841,47.135C63.841,45.919,62.855,44.933,61.639,44.933L25.381,44.933C24.164,44.933,23.178,45.919,23.178,47.135L23.178,76.142C23.178,77.358,24.164,78.344,25.381,78.344C26.597,78.344,27.583,77.358,27.583,76.142L27.583,47.135L25.381,49.338L61.639,49.338L59.436,47.135L59.436,76.142C59.436,77.358,60.422,78.344,61.639,78.344C62.855,78.344,63.841,77.358,63.841,76.142Z"/>
  <path stroke-dasharray="none" stroke-width="1.62px" stroke-linecap="round" fill="#000000" fill-opacity="1" stroke-miterlimit="4" stroke="none" fill-rule="nonzero" points="7 3 7 8 15 8" stroke-opacity="1" stroke-linejoin="round" d="M23.178,10.877L23.178,29.006C23.178,30.223,24.164,31.209,25.381,31.209L54.387,31.209C55.603,31.209,56.59,30.223,56.59,29.006C56.59,27.79,55.603,26.804,54.387,26.804L25.381,26.804L27.583,29.006L27.583,10.877C27.583,9.661,26.597,8.675,25.381,8.675C24.164,8.675,23.178,9.661,23.178,10.877Z"/>
</g>
  <g id="Thin-S" transform="matrix(1.0,0.0,0.0,1.0,814.2004184431684,617.2604379744184)">  <path fill="#000000" stroke-linecap="round" fill-opacity="1" stroke-width="1.62px" stroke-dasharray="none" stroke-miterlimit="4" stroke-opacity="1" stroke="none" fill-rule="nonzero" stroke-linejoin="round" d="M68.89,74.38L18.129,74.38C15.097,74.38,12.64,71.922,12.64,68.89L12.64,18.129C12.64,15.097,15.097,12.64,18.129,12.64L58.013,12.64L56.767,12.123L74.896,30.252L74.38,29.006L74.38,68.89C74.38,71.922,71.922,74.38,68.89,74.38ZM68.89,77.904C73.868,77.904,77.904,73.868,77.904,68.89L77.904,29.006C77.904,28.539,77.718,28.091,77.388,27.76L59.259,9.631C58.928,9.301,58.48,9.115,58.013,9.115L18.129,9.115C13.151,9.115,9.115,13.151,9.115,18.129L9.115,68.89C9.115,73.868,13.151,77.904,18.129,77.904L68.89,77.904Z"/>
  <path points="17 21 17 13 7 13 7 21" stroke-dasharray="none" stroke-width="1.62px" stroke-opacity="1" fill="#000000" stroke-linejoin="round" fill-rule="nonzero" fill-opacity="1" stroke-linecap="round" stroke-miterlimit="4" stroke="none" d="M63.401,76.142L63.401,47.135C63.401,46.162,62.612,45.373,61.639,45.373L25.381,45.373C24.407,45.373,23.618,46.162,23.618,47.135L23.618,76.142C23.618,77.115,24.407,77.904,25.381,77.904C26.354,77.904,27.143,77.115,27.143,76.142L27.143,47.135L25.381,48.898L61.639,48.898L59.876,47.135L59.876,76.142C59.876,77.115,60.665,77.904,61.639,77.904C62.612,77.904,63.401,77.115,63.401,76.142Z"/>
  <path fill-rule="nonzero" stroke="none" stroke-linejoin="round" stroke-width="1.62px" fill-opacity="1" stroke-miterlimit="4" stroke-opacity="1" stroke-linecap="round" fill="#000000" stroke-dasharray="none" points="7 3 7 8 15 8" d="M23.618,10.877L23.618,29.006C23.618,29.98,24.407,30.769,25.381,30.769L54.387,30.769C55.36,30.769,56.149,29.98,56.149,29.006C56.149,28.033,55.36,27.244,54.387,27.244L25.381,27.244L27.143,29.006L27.143,10.877C27.143,9.904,26.354,9.115,25.381,9.115C24.407,9.115,23.618,9.904,23.618,10.877Z"/>
</g>
  <g id="Ultralight-S" transform="matrix(1.0,0.0,0.0,1.0,517.4904184431683,617.2604379744184)">  <path stroke-width="1.62px" stroke-linejoin="round" stroke-dasharray="none" stroke="none" fill="#000000" fill-rule="nonzero" fill-opacity="1" stroke-opacity="1" stroke-linecap="round" stroke-miterlimit="4" d="M68.89,74.82L18.129,74.82C14.854,74.82,12.199,72.165,12.199,68.89L12.199,18.129C12.199,14.854,14.854,12.199,18.129,12.199L58.013,12.199L57.078,11.812L75.207,29.941L74.82,29.006L74.82,68.89C74.82,72.165,72.165,74.82,68.89,74.82ZM68.89,77.463C73.625,77.463,77.463,73.625,77.463,68.89L77.463,29.006C77.463,28.656,77.324,28.32,77.076,28.072L58.947,9.943C58.699,9.695,58.363,9.556,58.013,9.556L18.129,9.556C13.394,9.556,9.556,13.394,9.556,18.129L9.556,68.89C9.556,73.625,13.394,77.463,18.129,77.463L68.89,77.463Z"/>
  <path stroke-linejoin="round" stroke-width="1.62px" stroke-linecap="round" fill="#000000" fill-opacity="1" stroke="none" stroke-opacity="1" points="17 21 17 13 7 13 7 21" stroke-miterlimit="4" fill-rule="nonzero" stroke-dasharray="none" d="M62.96,76.142L62.96,47.135C62.96,46.405,62.368,45.814,61.639,45.814L25.381,45.814C24.651,45.814,24.059,46.405,24.059,47.135L24.059,76.142C24.059,76.872,24.651,77.463,25.381,77.463C26.11,77.463,26.702,76.872,26.702,76.142L26.702,47.135L25.381,48.457L61.639,48.457L60.317,47.135L60.317,76.142C60.317,76.872,60.909,77.463,61.639,77.463C62.368,77.463,62.96,76.872,62.96,76.142Z"/>
  <path points="7 3 7 8 15 8" stroke-linejoin="round" stroke="none" stroke-linecap="round" stroke-miterlimit="4" stroke-opacity="1" fill-opacity="1" stroke-width="1.62px" fill-rule="nonzero" stroke-dasharray="none" fill="#000000" d="M24.059,10.877L24.059,29.006C24.059,29.736,24.651,30.328,25.381,30.328L54.387,30.328C55.117,30.328,55.709,29.736,55.709,29.006C55.709,28.276,55.117,27.685,54.387,27.685L25.381,27.685L26.702,29.006L26.702,10.877C26.702,10.147,26.11,9.556,25.381,9.556C24.651,9.556,24.059,10.147,24.059,10.877Z"/>
</g>
 </g>
</svg>
