<svg xmlns="http://www.w3.org/2000/svg" width="481.333" height="481.333">
  <path d="M2572.23 2980.73s217.05-28.18 165.53-262.73l-410.9-1813.473s-72.15-269.988-420.62-251.179c-266.82 14.398-502.6 141.468-630.11 403.092L962.918 1697.5l-48.633 97.58a1102.934 1102.934 0 0 0-33.859 74.78l-.008.04c-11.031 27-20.66 54.74-28.609 82.81-20.34 71.75-23.692 103.63-27.942 163.9-13.789 195.29 46.352 459.95 278.323 566.38l624.26 257.31a303.822 303.822 0 0 0 108.46 22.82" transform="matrix(.13333 0 0 -.13333 0 481.333)"/>
</svg>