<?xml version="1.0" encoding="UTF-8"?><!--Generator: https://SymbolKit.app--><!DOCTYPE svg PUBLIC "-//W3C//DTD SVG 1.1//EN" "http://www.w3.org/Graphics/SVG/1.1/DTD/svg11.dtd"><svg xmlns="http://www.w3.org/2000/svg" xmlns:xlink="http://www.w3.org/1999/xlink" version="1.1" viewBox="0 0 3300 2200">
 <!--glyph: "100092", point size: 100.0, font version: "20.0d10e1", template writer version: "138.0.0"-->
 <style>.SFSymbolsPreviewWireframe {fill:none;opacity:1.0;stroke:black;stroke-width:0.5}
</style>
 <g id="Notes">
  <rect height="2200" id="artboard" style="fill:white;opacity:1" width="3300" x="0" y="0"/>
  <line style="fill:none;stroke:black;opacity:1;stroke-width:0.5;" x1="263" x2="3036" y1="292" y2="292"/>
  <text style="stroke:none;fill:black;font-family:sans-serif;font-size:13;font-weight:bold;" transform="matrix(1 0 0 1 263 322)">Weight/Scale Variations</text>
  <text style="stroke:none;fill:black;font-family:sans-serif;font-size:13;text-anchor:middle;" transform="matrix(1 0 0 1 559.711 322)">Ultralight</text>
  <text style="stroke:none;fill:black;font-family:sans-serif;font-size:13;text-anchor:middle;" transform="matrix(1 0 0 1 856.422 322)">Thin</text>
  <text style="stroke:none;fill:black;font-family:sans-serif;font-size:13;text-anchor:middle;" transform="matrix(1 0 0 1 1153.13 322)">Light</text>
  <text style="stroke:none;fill:black;font-family:sans-serif;font-size:13;text-anchor:middle;" transform="matrix(1 0 0 1 1449.84 322)">Regular</text>
  <text style="stroke:none;fill:black;font-family:sans-serif;font-size:13;text-anchor:middle;" transform="matrix(1 0 0 1 1746.56 322)">Medium</text>
  <text style="stroke:none;fill:black;font-family:sans-serif;font-size:13;text-anchor:middle;" transform="matrix(1 0 0 1 2043.27 322)">Semibold</text>
  <text style="stroke:none;fill:black;font-family:sans-serif;font-size:13;text-anchor:middle;" transform="matrix(1 0 0 1 2339.98 322)">Bold</text>
  <text style="stroke:none;fill:black;font-family:sans-serif;font-size:13;text-anchor:middle;" transform="matrix(1 0 0 1 2636.69 322)">Heavy</text>
  <text style="stroke:none;fill:black;font-family:sans-serif;font-size:13;text-anchor:middle;" transform="matrix(1 0 0 1 2933.4 322)">Black</text>
  <line style="fill:none;stroke:black;opacity:1;stroke-width:0.5;" x1="263" x2="3036" y1="1903" y2="1903"/>
  <g transform="matrix(0.2 0 0 0.2 263 1933)">
   <path d="m46.2402 4.15039c21.7773 0 39.4531-17.627 39.4531-39.4043s-17.6758-39.4043-39.4531-39.4043c-21.7285 0-39.4043 17.627-39.4043 39.4043s17.6758 39.4043 39.4043 39.4043Zm0-7.42188c-17.6758 0-31.9336-14.3066-31.9336-31.9824s14.2578-31.9824 31.9336-31.9824 31.9824 14.3066 31.9824 31.9824-14.3066 31.9824-31.9824 31.9824Zm-17.9688-31.9824c0 2.14844 1.51367 3.61328 3.75977 3.61328h10.498v10.5957c0 2.19727 1.46484 3.71094 3.61328 3.71094 2.24609 0 3.71094-1.51367 3.71094-3.71094v-10.5957h10.5957c2.19727 0 3.71094-1.46484 3.71094-3.61328 0-2.19727-1.51367-3.71094-3.71094-3.71094h-10.5957v-10.5469c0-2.24609-1.46484-3.75977-3.71094-3.75977-2.14844 0-3.61328 1.51367-3.61328 3.75977v10.5469h-10.498c-2.24609 0-3.75977 1.51367-3.75977 3.71094Z"/>
  </g>
  <g transform="matrix(0.2 0 0 0.2 281.506 1933)">
   <path d="m58.5449 14.5508c27.4902 0 49.8047-22.3145 49.8047-49.8047s-22.3145-49.8047-49.8047-49.8047-49.8047 22.3145-49.8047 49.8047 22.3145 49.8047 49.8047 49.8047Zm0-8.30078c-22.9492 0-41.5039-18.5547-41.5039-41.5039s18.5547-41.5039 41.5039-41.5039 41.5039 18.5547 41.5039 41.5039-18.5547 41.5039-41.5039 41.5039Zm-22.6562-41.5039c0 2.39258 1.66016 4.00391 4.15039 4.00391h14.3555v14.4043c0 2.44141 1.66016 4.15039 4.05273 4.15039 2.44141 0 4.15039-1.66016 4.15039-4.15039v-14.4043h14.4043c2.44141 0 4.15039-1.61133 4.15039-4.00391 0-2.44141-1.70898-4.15039-4.15039-4.15039h-14.4043v-14.3555c0-2.49023-1.70898-4.19922-4.15039-4.19922-2.39258 0-4.05273 1.70898-4.05273 4.19922v14.3555h-14.3555c-2.49023 0-4.15039 1.70898-4.15039 4.15039Z"/>
  </g>
  <g transform="matrix(0.2 0 0 0.2 304.924 1933)">
   <path d="m74.8535 28.3203c35.1074 0 63.623-28.4668 63.623-63.5742s-28.5156-63.623-63.623-63.623-63.5742 28.5156-63.5742 63.623 28.4668 63.5742 63.5742 63.5742Zm0-9.08203c-30.127 0-54.4922-24.3652-54.4922-54.4922s24.3652-54.4922 54.4922-54.4922 54.4922 24.3652 54.4922 54.4922-24.3652 54.4922-54.4922 54.4922Zm-28.8574-54.4922c0 2.58789 1.85547 4.39453 4.58984 4.39453h19.7266v19.7754c0 2.68555 1.85547 4.58984 4.44336 4.58984 2.68555 0 4.54102-1.85547 4.54102-4.58984v-19.7754h19.7754c2.68555 0 4.58984-1.80664 4.58984-4.39453 0-2.73438-1.85547-4.58984-4.58984-4.58984h-19.7754v-19.7266c0-2.73438-1.85547-4.63867-4.54102-4.63867-2.58789 0-4.44336 1.9043-4.44336 4.63867v19.7266h-19.7266c-2.73438 0-4.58984 1.85547-4.58984 4.58984Z"/>
  </g>
  <text style="stroke:none;fill:black;font-family:sans-serif;font-size:13;font-weight:bold;" transform="matrix(1 0 0 1 263 1953)">Design Variations</text>
  <text style="stroke:none;fill:black;font-family:sans-serif;font-size:13;" transform="matrix(1 0 0 1 263 1971)">Symbols are supported in up to nine weights and three scales.</text>
  <text style="stroke:none;fill:black;font-family:sans-serif;font-size:13;" transform="matrix(1 0 0 1 263 1989)">For optimal layout with text and other symbols, vertically align</text>
  <text style="stroke:none;fill:black;font-family:sans-serif;font-size:13;" transform="matrix(1 0 0 1 263 2007)">symbols with the adjacent text.</text>
  <line style="fill:none;stroke:#00AEEF;stroke-width:0.5;opacity:1.0;" x1="776" x2="776" y1="1919" y2="1933"/>
  <g transform="matrix(0.2 0 0 0.2 776 1933)">
   <path d="m16.5527 0.78125c2.58789 0 3.85742-0.976562 4.78516-3.71094l6.29883-17.2363h28.8086l6.29883 17.2363c0.927734 2.73438 2.19727 3.71094 4.73633 3.71094 2.58789 0 4.24805-1.5625 4.24805-4.00391 0-0.830078-0.146484-1.61133-0.537109-2.63672l-22.9004-60.9863c-1.12305-2.97852-3.125-4.49219-6.25-4.49219-3.02734 0-5.07812 1.46484-6.15234 4.44336l-22.9004 61.084c-0.390625 1.02539-0.537109 1.80664-0.537109 2.63672 0 2.44141 1.5625 3.95508 4.10156 3.95508Zm13.4766-28.3691 11.8652-32.8613h0.244141l11.8652 32.8613Z"/>
  </g>
  <line style="fill:none;stroke:#00AEEF;stroke-width:0.5;opacity:1.0;" x1="792.836" x2="792.836" y1="1919" y2="1933"/>
  <text style="stroke:none;fill:black;font-family:sans-serif;font-size:13;font-weight:bold;" transform="matrix(1 0 0 1 776 1953)">Margins</text>
  <text style="stroke:none;fill:black;font-family:sans-serif;font-size:13;" transform="matrix(1 0 0 1 776 1971)">Leading and trailing margins on the left and right side of each symbol</text>
  <text style="stroke:none;fill:black;font-family:sans-serif;font-size:13;" transform="matrix(1 0 0 1 776 1989)">can be adjusted by modifying the x-location of the margin guidelines.</text>
  <text style="stroke:none;fill:black;font-family:sans-serif;font-size:13;" transform="matrix(1 0 0 1 776 2007)">Modifications are automatically applied proportionally to all</text>
  <text style="stroke:none;fill:black;font-family:sans-serif;font-size:13;" transform="matrix(1 0 0 1 776 2025)">scales and weights.</text>
  <g transform="matrix(0.2 0 0 0.2 1289 1933)">
   <path d="m14.209 9.32617 8.49609 8.54492c4.29688 4.3457 9.22852 4.05273 13.8672-1.07422l53.4668-58.9355-4.83398-4.88281-53.0762 58.3984c-1.75781 2.00195-3.41797 2.49023-5.76172 0.146484l-5.85938-5.81055c-2.34375-2.29492-1.80664-4.00391 0.195312-5.81055l57.373-54.0039-4.88281-4.83398-57.959 54.4434c-4.93164 4.58984-5.32227 9.47266-1.02539 13.8184Zm32.0801-90.9668c-2.09961 2.05078-2.24609 4.93164-1.07422 6.88477 1.17188 1.80664 3.4668 2.97852 6.68945 2.14844 7.32422-1.70898 14.9414-2.00195 22.0703 2.68555l-2.92969 7.27539c-1.70898 4.15039-0.830078 7.08008 1.85547 9.81445l11.4746 11.5723c2.44141 2.44141 4.49219 2.53906 7.32422 2.05078l5.32227-0.976562 3.32031 3.36914-0.195312 2.7832c-0.195312 2.49023 0.439453 4.39453 2.88086 6.78711l3.80859 3.71094c2.39258 2.39258 5.46875 2.53906 7.8125 0.195312l14.5508-14.5996c2.34375-2.34375 2.24609-5.32227-0.146484-7.71484l-3.85742-3.80859c-2.39258-2.39258-4.24805-3.17383-6.64062-2.97852l-2.88086 0.244141-3.22266-3.17383 1.2207-5.61523c0.634766-2.83203-0.146484-5.0293-3.07617-7.95898l-10.9863-10.9375c-16.6992-16.6016-38.8672-16.2109-53.3203-1.75781Zm7.4707 1.85547c12.1582-8.88672 28.6133-7.37305 39.7461 3.75977l12.1582 12.0605c1.17188 1.17188 1.36719 2.09961 1.02539 3.80859l-1.61133 7.42188 7.51953 7.42188 4.93164-0.292969c1.26953-0.0488281 1.66016 0.0488281 2.63672 1.02539l2.88086 2.88086-12.207 12.207-2.88086-2.88086c-0.976562-0.976562-1.12305-1.36719-1.07422-2.68555l0.341797-4.88281-7.4707-7.42188-7.61719 1.26953c-1.61133 0.341797-2.34375 0.195312-3.56445-0.976562l-10.0098-10.0098c-1.26953-1.17188-1.41602-2.00195-0.634766-3.85742l4.39453-10.4492c-7.8125-7.27539-17.9688-10.4004-28.125-7.42188-0.78125 0.195312-1.07422-0.439453-0.439453-0.976562Z"/>
  </g>
  <text style="stroke:none;fill:black;font-family:sans-serif;font-size:13;font-weight:bold;" transform="matrix(1 0 0 1 1289 1953)">Exporting</text>
  <text style="stroke:none;fill:black;font-family:sans-serif;font-size:13;" transform="matrix(1 0 0 1 1289 1971)">Symbols should be outlined when exporting to ensure the</text>
  <text style="stroke:none;fill:black;font-family:sans-serif;font-size:13;" transform="matrix(1 0 0 1 1289 1989)">design is preserved when submitting to Xcode.</text>
  <text id="template-version" style="stroke:none;fill:black;font-family:sans-serif;font-size:13;text-anchor:end;" transform="matrix(1 0 0 1 3036 1933)">Template v.6.0</text>
  <text style="stroke:none;fill:black;font-family:sans-serif;font-size:13;text-anchor:end;" transform="matrix(1 0 0 1 3036 1951)">Requires Xcode 16 or greater</text>
  <text id="descriptive-name" style="stroke:none;fill:black;font-family:sans-serif;font-size:13;text-anchor:end;" transform="matrix(1 0 0 1 3036 1969)">Generated from square</text>
  <text style="stroke:none;fill:black;font-family:sans-serif;font-size:13;text-anchor:end;" transform="matrix(1 0 0 1 3036 1987)">Typeset at 100.0 points</text>
  <text style="stroke:none;fill:black;font-family:sans-serif;font-size:13;" transform="matrix(1 0 0 1 263 726)">Small</text>
  <text style="stroke:none;fill:black;font-family:sans-serif;font-size:13;" transform="matrix(1 0 0 1 263 1156)">Medium</text>
  <text style="stroke:none;fill:black;font-family:sans-serif;font-size:13;" transform="matrix(1 0 0 1 263 1586)">Large</text>
 </g>
 <g id="Guides">
  <g id="H-reference" style="fill:#27AAE1;stroke:none;" transform="matrix(1 0 0 1 339 696)">
   <path d="M0.993654 0L3.63775 0L29.3281-67.1323L30.0303-67.1323L30.0303-70.459L28.1226-70.459ZM11.6885-24.4799L46.9815-24.4799L46.2315-26.7285L12.4385-26.7285ZM55.1196 0L57.7637 0L30.6382-70.459L29.4326-70.459L29.4326-67.1323Z"/>
  </g>
  <line id="Baseline-S" style="fill:none;stroke:#27AAE1;opacity:1;stroke-width:0.5;" x1="263" x2="3036" y1="696" y2="696"/>
  <line id="Capline-S" style="fill:none;stroke:#27AAE1;opacity:1;stroke-width:0.5;" x1="263" x2="3036" y1="625.541" y2="625.541"/>
  <g id="H-reference" style="fill:#27AAE1;stroke:none;" transform="matrix(1 0 0 1 339 1126)">
   <path d="M0.993654 0L3.63775 0L29.3281-67.1323L30.0303-67.1323L30.0303-70.459L28.1226-70.459ZM11.6885-24.4799L46.9815-24.4799L46.2315-26.7285L12.4385-26.7285ZM55.1196 0L57.7637 0L30.6382-70.459L29.4326-70.459L29.4326-67.1323Z"/>
  </g>
  <line id="Baseline-M" style="fill:none;stroke:#27AAE1;opacity:1;stroke-width:0.5;" x1="263" x2="3036" y1="1126" y2="1126"/>
  <line id="Capline-M" style="fill:none;stroke:#27AAE1;opacity:1;stroke-width:0.5;" x1="263" x2="3036" y1="1055.54" y2="1055.54"/>
  <g id="H-reference" style="fill:#27AAE1;stroke:none;" transform="matrix(1 0 0 1 339 1556)">
   <path d="M0.993654 0L3.63775 0L29.3281-67.1323L30.0303-67.1323L30.0303-70.459L28.1226-70.459ZM11.6885-24.4799L46.9815-24.4799L46.2315-26.7285L12.4385-26.7285ZM55.1196 0L57.7637 0L30.6382-70.459L29.4326-70.459L29.4326-67.1323Z"/>
  </g>
  <line id="Baseline-L" style="fill:none;stroke:#27AAE1;opacity:1;stroke-width:0.5;" x1="263" x2="3036" y1="1556" y2="1556"/>
  <line id="Capline-L" style="fill:none;stroke:#27AAE1;opacity:1;stroke-width:0.5;" x1="263" x2="3036" y1="1485.54" y2="1485.54"/>
  <line id="right-margin-Black-S" style="fill:none;stroke:#00AEEF;stroke-width:0.5;opacity:1.0;" x1="2981.3" x2="2981.3" y1="600.785" y2="720.121"/>
  <line id="left-margin-Black-S" style="fill:none;stroke:#00AEEF;stroke-width:0.5;opacity:1.0;" x1="2885.5" x2="2885.5" y1="600.785" y2="720.121"/>
  <line id="right-margin-Regular-S" style="fill:none;stroke:#00AEEF;stroke-width:0.5;opacity:1.0;" x1="1495.18" x2="1495.18" y1="600.785" y2="720.121"/>
  <line id="left-margin-Regular-S" style="fill:none;stroke:#00AEEF;stroke-width:0.5;opacity:1.0;" x1="1404.51" x2="1404.51" y1="600.785" y2="720.121"/>
  <line id="right-margin-Ultralight-S" style="fill:none;stroke:#00AEEF;stroke-width:0.5;opacity:1.0;" x1="603.073" x2="603.073" y1="600.785" y2="720.121"/>
  <line id="left-margin-Ultralight-S" style="fill:none;stroke:#00AEEF;stroke-width:0.5;opacity:1.0;" x1="516.35" x2="516.35" y1="600.785" y2="720.121"/>
 </g>
 <g id="Symbols">
  <g id="Black-S"><path d="M2924.06707,632.20092c-0.78092,0.19376 -1.37101,0.75743 -1.57946,1.51193c-0.06752,0.24073 -0.1233,1.48257 -0.1233,2.75671v2.31927h-1.0334c-3.53176,0 -13.99492,0.81909 -15.134,1.18606c-0.49615,0.15853 -1.16257,0.9101 -1.34459,1.5178c-0.19376,0.65175 0.01174,1.44147 0.51964,1.97872c0.72808,0.76918 1.22422,0.83964 3.72258,0.54312c4.96736,-0.59303 12.51821,-0.94239 17.96704,-0.82789c3.95157,0.07927 4.4624,0.1233 4.4624,0.36697c0,0.31413 -1.41505,4.43598 -2.00515,5.83342c-0.64587,1.53542 -1.97579,4.24809 -2.72148,5.54865c-0.65175,1.13909 -2.13138,3.46423 -2.20184,3.46423c-0.08807,0 -1.64698,-2.48074 -2.33395,-3.71084c-0.5578,-0.99817 -1.67047,-3.25873 -2.6334,-5.35195c-0.48734,-1.05688 -0.98936,-1.47377 -1.91414,-1.57946c-0.48441,-0.05578 -0.67817,-0.01174 -1.21248,0.27009c-0.76331,0.4022 -1.18312,1.06863 -1.18312,1.88478c0,0.62826 0.74276,2.39267 2.21946,5.258c1.189,2.31047 1.75854,3.27928 3.20295,5.44296l1.04808,1.56478l-0.56367,0.66349c-3.94864,4.64442 -8.80737,8.57545 -14.40005,11.64628c-0.63413,0.34936 -1.30349,0.80734 -1.49138,1.01872c-1.27707,1.45615 -0.13211,3.6991 1.80551,3.53763c0.48147,-0.03817 0.92771,-0.22312 2.07854,-0.85432c5.18754,-2.85065 10.27527,-6.83159 13.99785,-10.95637c0.7134,-0.79266 1.33872,-1.42679 1.38863,-1.40918c0.04991,0.01761 0.65468,0.64 1.34753,1.38276c1.32404,1.42092 1.82313,1.81138 2.47194,1.93175c0.88074,0.1644 1.89065,-0.39927 2.29285,-1.28c0.49321,-1.08624 0.26716,-1.7145 -1.15964,-3.24405c-0.62826,-0.67523 -1.37689,-1.509 -1.66166,-1.84955l-0.51376,-0.62239l0.26716,-0.3611c0.14679,-0.19963 0.67523,-0.97762 1.17138,-1.72625c2.95634,-4.4624 5.2991,-9.58242 6.85801,-14.98428l0.40514,-1.40918l0.74569,0.03817c0.40807,0.02055 1.65285,0.13798 2.76845,0.26422c2.40735,0.27009 2.96515,0.2789 3.46717,0.06459c0.96294,-0.41395 1.55597,-1.59707 1.27413,-2.53652c-0.18202,-0.60771 -0.84844,-1.36221 -1.34459,-1.5178c-1.16551,-0.36991 -11.45839,-1.18019 -15.02244,-1.18606h-1.14496v-2.31927c0,-2.49836 -0.07927,-2.99451 -0.54606,-3.55231c-0.5167,-0.61358 -1.42973,-0.9101 -2.21359,-0.71633M2943.43742,652.23769c-0.32,0.16147 -0.66642,0.41101 -0.76918,0.5578c-0.10275,0.14385 -3.69029,7.76517 -7.97067,16.93658c-5.75121,12.31858 -7.8004,16.81621 -7.8415,17.21841c-0.10569,1.00991 0.35523,1.7879 1.32111,2.2312c0.25835,0.11743 0.6312,0.21725 0.82789,0.21725c0.51964,0.00294 1.47964,-0.5167 1.77615,-0.96294c0.13798,-0.21138 1.0334,-2.06386 1.98459,-4.11304l1.73505,-3.72845l9.92297,0.02936l9.92297,0.02936l1.80551,3.87524c0.99523,2.13138 1.92294,3.99855 2.0668,4.15121c1.14789,1.2301 3.28515,0.69285 3.72552,-0.93945c0.07046,-0.27009 0.09688,-0.6723 0.05578,-0.89248c-0.09982,-0.52257 -15.49804,-33.54728 -15.88557,-34.06692c-0.34642,-0.46385 -1.08918,-0.83376 -1.67927,-0.8367c-0.22899,-0.00294 -0.67817,0.12917 -0.99817,0.29358M2948.36955,667.84142c2.10496,4.51525 3.80772,8.22609 3.78423,8.24957c-0.02349,0.02349 -3.52882,0.02936 -7.79159,0.01174l-7.74755,-0.02936l3.87524,-8.31122c2.13432,-4.56809 3.91635,-8.26719 3.96332,-8.22021c0.04697,0.04991 1.80845,3.78423 3.91635,8.29948" className="SFSymbolsPreviewWireframe"/></g>
  <g id="Regular-S"><path d="M1440.51202,632.20092c-0.78092,0.19376 -1.37101,0.75743 -1.57946,1.51193c-0.06752,0.24073 -0.1233,1.48257 -0.1233,2.75671v2.31927h-1.0334c-3.53176,0 -13.99492,0.81909 -15.134,1.18606c-0.49615,0.15853 -1.16257,0.9101 -1.34459,1.5178c-0.19376,0.65175 0.01174,1.44147 0.51964,1.97872c0.72808,0.76918 1.22422,0.83964 3.72258,0.54312c4.96736,-0.59303 12.51821,-0.94239 17.96704,-0.82789c3.95157,0.07927 4.4624,0.1233 4.4624,0.36697c0,0.31413 -1.41505,4.43598 -2.00515,5.83342c-0.64587,1.53542 -1.97579,4.24809 -2.72148,5.54865c-0.65175,1.13909 -2.13138,3.46423 -2.20184,3.46423c-0.08807,0 -1.64698,-2.48074 -2.33395,-3.71084c-0.5578,-0.99817 -1.67047,-3.25873 -2.6334,-5.35195c-0.48734,-1.05688 -0.98936,-1.47377 -1.91414,-1.57946c-0.48441,-0.05578 -0.67817,-0.01174 -1.21248,0.27009c-0.76331,0.4022 -1.18312,1.06863 -1.18312,1.88478c0,0.62826 0.74276,2.39267 2.21946,5.258c1.189,2.31047 1.75854,3.27928 3.20295,5.44296l1.04808,1.56478l-0.56367,0.66349c-3.94864,4.64442 -8.80737,8.57545 -14.40005,11.64628c-0.63413,0.34936 -1.30349,0.80734 -1.49138,1.01872c-1.27707,1.45615 -0.13211,3.6991 1.80551,3.53763c0.48147,-0.03817 0.92771,-0.22312 2.07854,-0.85432c5.18754,-2.85065 10.27527,-6.83159 13.99785,-10.95637c0.7134,-0.79266 1.33872,-1.42679 1.38863,-1.40918c0.04991,0.01761 0.65468,0.64 1.34753,1.38276c1.32404,1.42092 1.82313,1.81138 2.47194,1.93175c0.88074,0.1644 1.89065,-0.39927 2.29285,-1.28c0.49321,-1.08624 0.26716,-1.7145 -1.15964,-3.24405c-0.62826,-0.67523 -1.37689,-1.509 -1.66166,-1.84955l-0.51376,-0.62239l0.26716,-0.3611c0.14679,-0.19963 0.67523,-0.97762 1.17138,-1.72625c2.95634,-4.4624 5.2991,-9.58242 6.85801,-14.98428l0.40514,-1.40918l0.74569,0.03817c0.40807,0.02055 1.65285,0.13798 2.76845,0.26422c2.40735,0.27009 2.96515,0.2789 3.46717,0.06459c0.96294,-0.41395 1.55597,-1.59707 1.27413,-2.53652c-0.18202,-0.60771 -0.84844,-1.36221 -1.34459,-1.5178c-1.16551,-0.36991 -11.45839,-1.18019 -15.02244,-1.18606h-1.14496v-2.31927c0,-2.49836 -0.07927,-2.99451 -0.54606,-3.55231c-0.5167,-0.61358 -1.42973,-0.9101 -2.21359,-0.71633M1459.88237,652.23769c-0.32,0.16147 -0.66642,0.41101 -0.76918,0.5578c-0.10275,0.14385 -3.69029,7.76517 -7.97067,16.93658c-5.75121,12.31858 -7.8004,16.81621 -7.8415,17.21841c-0.10569,1.00991 0.35523,1.7879 1.32111,2.2312c0.25835,0.11743 0.6312,0.21725 0.82789,0.21725c0.51964,0.00294 1.47964,-0.5167 1.77615,-0.96294c0.13798,-0.21138 1.0334,-2.06386 1.98459,-4.11304l1.73505,-3.72845l9.92297,0.02936l9.92297,0.02936l1.80551,3.87524c0.99523,2.13138 1.92294,3.99855 2.0668,4.15121c1.14789,1.2301 3.28515,0.69285 3.72552,-0.93945c0.07046,-0.27009 0.09688,-0.6723 0.05578,-0.89248c-0.09982,-0.52257 -15.49804,-33.54728 -15.88557,-34.06692c-0.34642,-0.46385 -1.08918,-0.83376 -1.67927,-0.8367c-0.22899,-0.00294 -0.67817,0.12917 -0.99817,0.29358M1464.8145,667.84142c2.10496,4.51525 3.80772,8.22609 3.78423,8.24957c-0.02349,0.02349 -3.52882,0.02936 -7.79159,0.01174l-7.74755,-0.02936l3.87524,-8.31122c2.13432,-4.56809 3.91635,-8.26719 3.96332,-8.22021c0.04697,0.04991 1.80845,3.78423 3.91635,8.29948" className="SFSymbolsPreviewWireframe"/></g>
  <g id="Ultralight-S"><path d="M550.37843,632.20092c-0.78092,0.19376 -1.37101,0.75743 -1.57946,1.51193c-0.06752,0.24073 -0.1233,1.48257 -0.1233,2.75671v2.31927h-1.0334c-3.53176,0 -13.99492,0.81909 -15.134,1.18606c-0.49615,0.15853 -1.16257,0.9101 -1.34459,1.5178c-0.19376,0.65175 0.01174,1.44147 0.51964,1.97872c0.72808,0.76918 1.22422,0.83964 3.72258,0.54312c4.96736,-0.59303 12.51821,-0.94239 17.96704,-0.82789c3.95157,0.07927 4.4624,0.1233 4.4624,0.36697c0,0.31413 -1.41505,4.43598 -2.00515,5.83342c-0.64587,1.53542 -1.97579,4.24809 -2.72148,5.54865c-0.65175,1.13909 -2.13138,3.46423 -2.20184,3.46423c-0.08807,0 -1.64698,-2.48074 -2.33395,-3.71084c-0.5578,-0.99817 -1.67047,-3.25873 -2.6334,-5.35195c-0.48734,-1.05688 -0.98936,-1.47377 -1.91414,-1.57946c-0.48441,-0.05578 -0.67817,-0.01174 -1.21248,0.27009c-0.76331,0.4022 -1.18312,1.06863 -1.18312,1.88478c0,0.62826 0.74276,2.39267 2.21946,5.258c1.189,2.31047 1.75854,3.27928 3.20295,5.44296l1.04808,1.56478l-0.56367,0.66349c-3.94864,4.64442 -8.80737,8.57545 -14.40005,11.64628c-0.63413,0.34936 -1.30349,0.80734 -1.49138,1.01872c-1.27707,1.45615 -0.13211,3.6991 1.80551,3.53763c0.48147,-0.03817 0.92771,-0.22312 2.07854,-0.85432c5.18754,-2.85065 10.27527,-6.83159 13.99785,-10.95637c0.7134,-0.79266 1.33872,-1.42679 1.38863,-1.40918c0.04991,0.01761 0.65468,0.64 1.34753,1.38276c1.32404,1.42092 1.82313,1.81138 2.47194,1.93175c0.88074,0.1644 1.89065,-0.39927 2.29285,-1.28c0.49321,-1.08624 0.26716,-1.7145 -1.15964,-3.24405c-0.62826,-0.67523 -1.37689,-1.509 -1.66166,-1.84955l-0.51376,-0.62239l0.26716,-0.3611c0.14679,-0.19963 0.67523,-0.97762 1.17138,-1.72625c2.95634,-4.4624 5.2991,-9.58242 6.85801,-14.98428l0.40514,-1.40918l0.74569,0.03817c0.40807,0.02055 1.65285,0.13798 2.76845,0.26422c2.40735,0.27009 2.96515,0.2789 3.46717,0.06459c0.96294,-0.41395 1.55597,-1.59707 1.27413,-2.53652c-0.18202,-0.60771 -0.84844,-1.36221 -1.34459,-1.5178c-1.16551,-0.36991 -11.45839,-1.18019 -15.02244,-1.18606h-1.14496v-2.31927c0,-2.49836 -0.07927,-2.99451 -0.54606,-3.55231c-0.5167,-0.61358 -1.42973,-0.9101 -2.21359,-0.71633M569.74878,652.23769c-0.32,0.16147 -0.66642,0.41101 -0.76918,0.5578c-0.10275,0.14385 -3.69029,7.76517 -7.97067,16.93658c-5.75121,12.31858 -7.8004,16.81621 -7.8415,17.21841c-0.10569,1.00991 0.35523,1.7879 1.32111,2.2312c0.25835,0.11743 0.6312,0.21725 0.82789,0.21725c0.51964,0.00294 1.47964,-0.5167 1.77615,-0.96294c0.13798,-0.21138 1.0334,-2.06386 1.98459,-4.11304l1.73505,-3.72845l9.92297,0.02936l9.92297,0.02936l1.80551,3.87524c0.99523,2.13138 1.92294,3.99855 2.0668,4.15121c1.14789,1.2301 3.28515,0.69285 3.72552,-0.93945c0.07046,-0.27009 0.09688,-0.6723 0.05578,-0.89248c-0.09982,-0.52257 -15.49804,-33.54728 -15.88557,-34.06692c-0.34642,-0.46385 -1.08918,-0.83376 -1.67927,-0.8367c-0.22899,-0.00294 -0.67817,0.12917 -0.99817,0.29358M574.68091,667.84142c2.10496,4.51525 3.80772,8.22609 3.78423,8.24957c-0.02349,0.02349 -3.52882,0.02936 -7.79159,0.01174l-7.74755,-0.02936l3.87524,-8.31122c2.13432,-4.56809 3.91635,-8.26719 3.96332,-8.22021c0.04697,0.04991 1.80845,3.78423 3.91635,8.29948" className="SFSymbolsPreviewWireframe"/></g>
 </g>
</svg>