<?xml version="1.0" encoding="UTF-8"?>
<!--Generator: Apple Native CoreSVG 336-->
<!DOCTYPE svg
PUBLIC "-//W3C//DTD SVG 1.1//EN"
       "http://www.w3.org/Graphics/SVG/1.1/DTD/svg11.dtd">
<svg version="1.1" xmlns="http://www.w3.org/2000/svg" xmlns:xlink="http://www.w3.org/1999/xlink" viewBox="0 0 3300 2200">
 <!--glyph: "1003B6", point size: 100.0, font version: "20.0d10e1", template writer version: "138.0.0"-->
 <style>.monochrome-0 {-sfsymbols-motion-group:0;-sfsymbols-layer-tags:film}

.multicolor-0:tintColor {-sfsymbols-motion-group:0;-sfsymbols-layer-tags:film}

.hierarchical-0:primary {-sfsymbols-motion-group:0;-sfsymbols-layer-tags:film}

.SFSymbolsPreviewWireframe {fill:none;opacity:1.0;stroke:black;stroke-width:0.5}
</style>
 <g id="Notes">
  <rect height="2200" id="artboard" style="fill:white;opacity:1" width="3300" x="0" y="0"/>
  <line style="fill:none;stroke:black;opacity:1;stroke-width:0.5;" x1="263" x2="3036" y1="292" y2="292"/>
  <text style="stroke:none;fill:black;font-family:sans-serif;font-size:13;font-weight:bold;" transform="matrix(1 0 0 1 263 322)">Weight/Scale Variations</text>
  <text style="stroke:none;fill:black;font-family:sans-serif;font-size:13;text-anchor:middle;" transform="matrix(1 0 0 1 559.711 322)">Ultralight</text>
  <text style="stroke:none;fill:black;font-family:sans-serif;font-size:13;text-anchor:middle;" transform="matrix(1 0 0 1 856.422 322)">Thin</text>
  <text style="stroke:none;fill:black;font-family:sans-serif;font-size:13;text-anchor:middle;" transform="matrix(1 0 0 1 1153.13 322)">Light</text>
  <text style="stroke:none;fill:black;font-family:sans-serif;font-size:13;text-anchor:middle;" transform="matrix(1 0 0 1 1449.84 322)">Regular</text>
  <text style="stroke:none;fill:black;font-family:sans-serif;font-size:13;text-anchor:middle;" transform="matrix(1 0 0 1 1746.56 322)">Medium</text>
  <text style="stroke:none;fill:black;font-family:sans-serif;font-size:13;text-anchor:middle;" transform="matrix(1 0 0 1 2043.27 322)">Semibold</text>
  <text style="stroke:none;fill:black;font-family:sans-serif;font-size:13;text-anchor:middle;" transform="matrix(1 0 0 1 2339.98 322)">Bold</text>
  <text style="stroke:none;fill:black;font-family:sans-serif;font-size:13;text-anchor:middle;" transform="matrix(1 0 0 1 2636.69 322)">Heavy</text>
  <text style="stroke:none;fill:black;font-family:sans-serif;font-size:13;text-anchor:middle;" transform="matrix(1 0 0 1 2933.4 322)">Black</text>
  <line style="fill:none;stroke:black;opacity:1;stroke-width:0.5;" x1="263" x2="3036" y1="1903" y2="1903"/>
  <g transform="matrix(0.2 0 0 0.2 263 1933)">
   <path d="m46.2402 4.15039c21.7773 0 39.4531-17.627 39.4531-39.4043s-17.6758-39.4043-39.4531-39.4043c-21.7285 0-39.4043 17.627-39.4043 39.4043s17.6758 39.4043 39.4043 39.4043Zm0-7.42188c-17.6758 0-31.9336-14.3066-31.9336-31.9824s14.2578-31.9824 31.9336-31.9824 31.9824 14.3066 31.9824 31.9824-14.3066 31.9824-31.9824 31.9824Zm-17.9688-31.9824c0 2.14844 1.51367 3.61328 3.75977 3.61328h10.498v10.5957c0 2.19727 1.46484 3.71094 3.61328 3.71094 2.24609 0 3.71094-1.51367 3.71094-3.71094v-10.5957h10.5957c2.19727 0 3.71094-1.46484 3.71094-3.61328 0-2.19727-1.51367-3.71094-3.71094-3.71094h-10.5957v-10.5469c0-2.24609-1.46484-3.75977-3.71094-3.75977-2.14844 0-3.61328 1.51367-3.61328 3.75977v10.5469h-10.498c-2.24609 0-3.75977 1.51367-3.75977 3.71094Z"/>
  </g>
  <g transform="matrix(0.2 0 0 0.2 281.506 1933)">
   <path d="m58.5449 14.5508c27.4902 0 49.8047-22.3145 49.8047-49.8047s-22.3145-49.8047-49.8047-49.8047-49.8047 22.3145-49.8047 49.8047 22.3145 49.8047 49.8047 49.8047Zm0-8.30078c-22.9492 0-41.5039-18.5547-41.5039-41.5039s18.5547-41.5039 41.5039-41.5039 41.5039 18.5547 41.5039 41.5039-18.5547 41.5039-41.5039 41.5039Zm-22.6562-41.5039c0 2.39258 1.66016 4.00391 4.15039 4.00391h14.3555v14.4043c0 2.44141 1.66016 4.15039 4.05273 4.15039 2.44141 0 4.15039-1.66016 4.15039-4.15039v-14.4043h14.4043c2.44141 0 4.15039-1.61133 4.15039-4.00391 0-2.44141-1.70898-4.15039-4.15039-4.15039h-14.4043v-14.3555c0-2.49023-1.70898-4.19922-4.15039-4.19922-2.39258 0-4.05273 1.70898-4.05273 4.19922v14.3555h-14.3555c-2.49023 0-4.15039 1.70898-4.15039 4.15039Z"/>
  </g>
  <g transform="matrix(0.2 0 0 0.2 304.924 1933)">
   <path d="m74.8535 28.3203c35.1074 0 63.623-28.4668 63.623-63.5742s-28.5156-63.623-63.623-63.623-63.5742 28.5156-63.5742 63.623 28.4668 63.5742 63.5742 63.5742Zm0-9.08203c-30.127 0-54.4922-24.3652-54.4922-54.4922s24.3652-54.4922 54.4922-54.4922 54.4922 24.3652 54.4922 54.4922-24.3652 54.4922-54.4922 54.4922Zm-28.8574-54.4922c0 2.58789 1.85547 4.39453 4.58984 4.39453h19.7266v19.7754c0 2.68555 1.85547 4.58984 4.44336 4.58984 2.68555 0 4.54102-1.85547 4.54102-4.58984v-19.7754h19.7754c2.68555 0 4.58984-1.80664 4.58984-4.39453 0-2.73438-1.85547-4.58984-4.58984-4.58984h-19.7754v-19.7266c0-2.73438-1.85547-4.63867-4.54102-4.63867-2.58789 0-4.44336 1.9043-4.44336 4.63867v19.7266h-19.7266c-2.73438 0-4.58984 1.85547-4.58984 4.58984Z"/>
  </g>
  <text style="stroke:none;fill:black;font-family:sans-serif;font-size:13;font-weight:bold;" transform="matrix(1 0 0 1 263 1953)">Design Variations</text>
  <text style="stroke:none;fill:black;font-family:sans-serif;font-size:13;" transform="matrix(1 0 0 1 263 1971)">Symbols are supported in up to nine weights and three scales.</text>
  <text style="stroke:none;fill:black;font-family:sans-serif;font-size:13;" transform="matrix(1 0 0 1 263 1989)">For optimal layout with text and other symbols, vertically align</text>
  <text style="stroke:none;fill:black;font-family:sans-serif;font-size:13;" transform="matrix(1 0 0 1 263 2007)">symbols with the adjacent text.</text>
  <line style="fill:none;stroke:#00AEEF;stroke-width:0.5;opacity:1.0;" x1="776" x2="776" y1="1919" y2="1933"/>
  <g transform="matrix(0.2 0 0 0.2 776 1933)">
   <path d="m16.5527 0.78125c2.58789 0 3.85742-0.976562 4.78516-3.71094l6.29883-17.2363h28.8086l6.29883 17.2363c0.927734 2.73438 2.19727 3.71094 4.73633 3.71094 2.58789 0 4.24805-1.5625 4.24805-4.00391 0-0.830078-0.146484-1.61133-0.537109-2.63672l-22.9004-60.9863c-1.12305-2.97852-3.125-4.49219-6.25-4.49219-3.02734 0-5.07812 1.46484-6.15234 4.44336l-22.9004 61.084c-0.390625 1.02539-0.537109 1.80664-0.537109 2.63672 0 2.44141 1.5625 3.95508 4.10156 3.95508Zm13.4766-28.3691 11.8652-32.8613h0.244141l11.8652 32.8613Z"/>
  </g>
  <line style="fill:none;stroke:#00AEEF;stroke-width:0.5;opacity:1.0;" x1="792.836" x2="792.836" y1="1919" y2="1933"/>
  <text style="stroke:none;fill:black;font-family:sans-serif;font-size:13;font-weight:bold;" transform="matrix(1 0 0 1 776 1953)">Margins</text>
  <text style="stroke:none;fill:black;font-family:sans-serif;font-size:13;" transform="matrix(1 0 0 1 776 1971)">Leading and trailing margins on the left and right side of each symbol</text>
  <text style="stroke:none;fill:black;font-family:sans-serif;font-size:13;" transform="matrix(1 0 0 1 776 1989)">can be adjusted by modifying the x-location of the margin guidelines.</text>
  <text style="stroke:none;fill:black;font-family:sans-serif;font-size:13;" transform="matrix(1 0 0 1 776 2007)">Modifications are automatically applied proportionally to all</text>
  <text style="stroke:none;fill:black;font-family:sans-serif;font-size:13;" transform="matrix(1 0 0 1 776 2025)">scales and weights.</text>
  <g transform="matrix(0.2 0 0 0.2 1289 1933)">
   <path d="m14.209 9.32617 8.49609 8.54492c4.29688 4.3457 9.22852 4.05273 13.8672-1.07422l53.4668-58.9355-4.83398-4.88281-53.0762 58.3984c-1.75781 2.00195-3.41797 2.49023-5.76172 0.146484l-5.85938-5.81055c-2.34375-2.29492-1.80664-4.00391 0.195312-5.81055l57.373-54.0039-4.88281-4.83398-57.959 54.4434c-4.93164 4.58984-5.32227 9.47266-1.02539 13.8184Zm32.0801-90.9668c-2.09961 2.05078-2.24609 4.93164-1.07422 6.88477 1.17188 1.80664 3.4668 2.97852 6.68945 2.14844 7.32422-1.70898 14.9414-2.00195 22.0703 2.68555l-2.92969 7.27539c-1.70898 4.15039-0.830078 7.08008 1.85547 9.81445l11.4746 11.5723c2.44141 2.44141 4.49219 2.53906 7.32422 2.05078l5.32227-0.976562 3.32031 3.36914-0.195312 2.7832c-0.195312 2.49023 0.439453 4.39453 2.88086 6.78711l3.80859 3.71094c2.39258 2.39258 5.46875 2.53906 7.8125 0.195312l14.5508-14.5996c2.34375-2.34375 2.24609-5.32227-0.146484-7.71484l-3.85742-3.80859c-2.39258-2.39258-4.24805-3.17383-6.64062-2.97852l-2.88086 0.244141-3.22266-3.17383 1.2207-5.61523c0.634766-2.83203-0.146484-5.0293-3.07617-7.95898l-10.9863-10.9375c-16.6992-16.6016-38.8672-16.2109-53.3203-1.75781Zm7.4707 1.85547c12.1582-8.88672 28.6133-7.37305 39.7461 3.75977l12.1582 12.0605c1.17188 1.17188 1.36719 2.09961 1.02539 3.80859l-1.61133 7.42188 7.51953 7.42188 4.93164-0.292969c1.26953-0.0488281 1.66016 0.0488281 2.63672 1.02539l2.88086 2.88086-12.207 12.207-2.88086-2.88086c-0.976562-0.976562-1.12305-1.36719-1.07422-2.68555l0.341797-4.88281-7.4707-7.42188-7.61719 1.26953c-1.61133 0.341797-2.34375 0.195312-3.56445-0.976562l-10.0098-10.0098c-1.26953-1.17188-1.41602-2.00195-0.634766-3.85742l4.39453-10.4492c-7.8125-7.27539-17.9688-10.4004-28.125-7.42188-0.78125 0.195312-1.07422-0.439453-0.439453-0.976562Z"/>
  </g>
  <text style="stroke:none;fill:black;font-family:sans-serif;font-size:13;font-weight:bold;" transform="matrix(1 0 0 1 1289 1953)">Exporting</text>
  <text style="stroke:none;fill:black;font-family:sans-serif;font-size:13;" transform="matrix(1 0 0 1 1289 1971)">Symbols should be outlined when exporting to ensure the</text>
  <text style="stroke:none;fill:black;font-family:sans-serif;font-size:13;" transform="matrix(1 0 0 1 1289 1989)">design is preserved when submitting to Xcode.</text>
  <text id="template-version" style="stroke:none;fill:black;font-family:sans-serif;font-size:13;text-anchor:end;" transform="matrix(1 0 0 1 3036 1933)">Template v.6.0</text>
  <text style="stroke:none;fill:black;font-family:sans-serif;font-size:13;text-anchor:end;" transform="matrix(1 0 0 1 3036 1951)">Requires Xcode 16 or greater</text>
  <text id="descriptive-name" style="stroke:none;fill:black;font-family:sans-serif;font-size:13;text-anchor:end;" transform="matrix(1 0 0 1 3036 1969)">Generated from film</text>
  <text style="stroke:none;fill:black;font-family:sans-serif;font-size:13;text-anchor:end;" transform="matrix(1 0 0 1 3036 1987)">Typeset at 100.0 points</text>
  <text style="stroke:none;fill:black;font-family:sans-serif;font-size:13;" transform="matrix(1 0 0 1 263 726)">Small</text>
  <text style="stroke:none;fill:black;font-family:sans-serif;font-size:13;" transform="matrix(1 0 0 1 263 1156)">Medium</text>
  <text style="stroke:none;fill:black;font-family:sans-serif;font-size:13;" transform="matrix(1 0 0 1 263 1586)">Large</text>
 </g>
 <g id="Guides">
  <g id="H-reference" style="fill:#27AAE1;stroke:none;" transform="matrix(1 0 0 1 339 696)">
   <path d="M0.993654 0L3.63775 0L29.3281-67.1323L30.0303-67.1323L30.0303-70.459L28.1226-70.459ZM11.6885-24.4799L46.9815-24.4799L46.2315-26.7285L12.4385-26.7285ZM55.1196 0L57.7637 0L30.6382-70.459L29.4326-70.459L29.4326-67.1323Z"/>
  </g>
  <line id="Baseline-S" style="fill:none;stroke:#27AAE1;opacity:1;stroke-width:0.5;" x1="263" x2="3036" y1="696" y2="696"/>
  <line id="Capline-S" style="fill:none;stroke:#27AAE1;opacity:1;stroke-width:0.5;" x1="263" x2="3036" y1="625.541" y2="625.541"/>
  <g id="H-reference" style="fill:#27AAE1;stroke:none;" transform="matrix(1 0 0 1 339 1126)">
   <path d="M0.993654 0L3.63775 0L29.3281-67.1323L30.0303-67.1323L30.0303-70.459L28.1226-70.459ZM11.6885-24.4799L46.9815-24.4799L46.2315-26.7285L12.4385-26.7285ZM55.1196 0L57.7637 0L30.6382-70.459L29.4326-70.459L29.4326-67.1323Z"/>
  </g>
  <line id="Baseline-M" style="fill:none;stroke:#27AAE1;opacity:1;stroke-width:0.5;" x1="263" x2="3036" y1="1126" y2="1126"/>
  <line id="Capline-M" style="fill:none;stroke:#27AAE1;opacity:1;stroke-width:0.5;" x1="263" x2="3036" y1="1055.54" y2="1055.54"/>
  <g id="H-reference" style="fill:#27AAE1;stroke:none;" transform="matrix(1 0 0 1 339 1556)">
   <path d="M0.993654 0L3.63775 0L29.3281-67.1323L30.0303-67.1323L30.0303-70.459L28.1226-70.459ZM11.6885-24.4799L46.9815-24.4799L46.2315-26.7285L12.4385-26.7285ZM55.1196 0L57.7637 0L30.6382-70.459L29.4326-70.459L29.4326-67.1323Z"/>
  </g>
  <line id="Baseline-L" style="fill:none;stroke:#27AAE1;opacity:1;stroke-width:0.5;" x1="263" x2="3036" y1="1556" y2="1556"/>
  <line id="Capline-L" style="fill:none;stroke:#27AAE1;opacity:1;stroke-width:0.5;" x1="263" x2="3036" y1="1485.54" y2="1485.54"/>
  <line id="right-margin-Black-S" style="fill:none;stroke:#00AEEF;stroke-width:0.5;opacity:1.0;" x1="2989.45" x2="2989.45" y1="600.785" y2="720.121"/>
  <line id="left-margin-Black-S" style="fill:none;stroke:#00AEEF;stroke-width:0.5;opacity:1.0;" x1="2877.35" x2="2877.35" y1="600.785" y2="720.121"/>
  <line id="right-margin-Regular-S" style="fill:none;stroke:#00AEEF;stroke-width:0.5;opacity:1.0;" x1="1504.9" x2="1504.9" y1="600.785" y2="720.121"/>
  <line id="left-margin-Regular-S" style="fill:none;stroke:#00AEEF;stroke-width:0.5;opacity:1.0;" x1="1394.79" x2="1394.79" y1="600.785" y2="720.121"/>
  <line id="right-margin-Ultralight-S" style="fill:none;stroke:#00AEEF;stroke-width:0.5;opacity:1.0;" x1="613.72" x2="613.72" y1="600.785" y2="720.121"/>
  <line id="left-margin-Ultralight-S" style="fill:none;stroke:#00AEEF;stroke-width:0.5;opacity:1.0;" x1="505.702" x2="505.702" y1="600.785" y2="720.121"/>
 </g>
 <g id="Symbols">
  <g id="Black-S" transform="matrix(1 0 0 1 2877.35 696)">
   <path class="monochrome-0 multicolor-0:tintColor hierarchical-0:primary SFSymbolsPreviewWireframe" d="M21.4355 2.92969L90.6738 2.92969C97.6562 2.92969 102.344-1.75781 102.344-8.74023L102.344-61.6211C102.344-68.6523 97.6562-73.3398 90.6738-73.3398L21.4355-73.3398C14.4531-73.3398 9.76562-68.6523 9.76562-61.6211L9.76562-8.74023C9.76562-1.75781 14.4531 2.92969 21.4355 2.92969ZM21.6309-8.44727C20.752-8.44727 20.0684-9.08203 20.0684-10.0098L20.0684-12.2559C20.0684-13.1348 20.752-13.7695 21.6309-13.7695L24.4629-13.7695C25.3418-13.7695 26.0254-13.1348 26.0254-12.2559L26.0254-10.0098C26.0254-9.08203 25.3418-8.44727 24.4629-8.44727ZM21.6309-20.2637C20.752-20.2637 20.0684-20.9473 20.0684-21.8262L20.0684-24.0723C20.0684-24.9512 20.752-25.6348 21.6309-25.6348L24.4629-25.6348C25.3418-25.6348 26.0254-24.9512 26.0254-24.0723L26.0254-21.8262C26.0254-20.9473 25.3418-20.2637 24.4629-20.2637ZM21.6309-32.5684C20.752-32.5684 20.0684-33.252 20.0684-34.1309L20.0684-36.377C20.0684-37.2559 20.752-37.9395 21.6309-37.9395L24.4629-37.9395C25.3418-37.9395 26.0254-37.2559 26.0254-36.377L26.0254-34.1309C26.0254-33.252 25.3418-32.5684 24.4629-32.5684ZM21.6309-44.873C20.752-44.873 20.0684-45.5566 20.0684-46.4355L20.0684-48.6816C20.0684-49.5605 20.752-50.2441 21.6309-50.2441L24.4629-50.2441C25.3418-50.2441 26.0254-49.5605 26.0254-48.6816L26.0254-46.4355C26.0254-45.5566 25.3418-44.873 24.4629-44.873ZM21.6309-56.7383C20.752-56.7383 20.0684-57.373 20.0684-58.252L20.0684-60.498C20.0684-61.4258 20.752-62.0605 21.6309-62.0605L24.4629-62.0605C25.3418-62.0605 26.0254-61.4258 26.0254-60.498L26.0254-58.252C26.0254-57.373 25.3418-56.7383 24.4629-56.7383ZM36.8164-8.44727C35.3516-8.44727 34.1797-9.61914 34.1797-11.084L34.1797-26.9531C34.1797-28.418 35.3516-29.5898 36.8164-29.5898L74.8047-29.5898C76.2695-29.5898 77.4414-28.418 77.4414-26.9531L77.4414-11.084C77.4414-9.61914 76.2695-8.44727 74.8047-8.44727ZM36.8164-40.918C35.3516-40.918 34.1797-42.0898 34.1797-43.5547L34.1797-59.4238C34.1797-60.8887 35.3516-62.0605 36.8164-62.0605L74.8047-62.0605C76.2695-62.0605 77.4414-60.8887 77.4414-59.4238L77.4414-43.5547C77.4414-42.0898 76.2695-40.918 74.8047-40.918ZM87.1582-8.44727C86.2793-8.44727 85.5957-9.08203 85.5957-10.0098L85.5957-12.2559C85.5957-13.1348 86.2793-13.7695 87.1582-13.7695L89.9902-13.7695C90.8691-13.7695 91.5527-13.1348 91.5527-12.2559L91.5527-10.0098C91.5527-9.08203 90.8691-8.44727 89.9902-8.44727ZM87.1582-20.2637C86.2793-20.2637 85.5957-20.9473 85.5957-21.8262L85.5957-24.0723C85.5957-24.9512 86.2793-25.6348 87.1582-25.6348L89.9902-25.6348C90.8691-25.6348 91.5527-24.9512 91.5527-24.0723L91.5527-21.8262C91.5527-20.9473 90.8691-20.2637 89.9902-20.2637ZM87.1582-32.5684C86.2793-32.5684 85.5957-33.252 85.5957-34.1309L85.5957-36.377C85.5957-37.2559 86.2793-37.9395 87.1582-37.9395L89.9902-37.9395C90.8691-37.9395 91.5527-37.2559 91.5527-36.377L91.5527-34.1309C91.5527-33.252 90.8691-32.5684 89.9902-32.5684ZM87.1582-44.873C86.2793-44.873 85.5957-45.5566 85.5957-46.4355L85.5957-48.6816C85.5957-49.5605 86.2793-50.2441 87.1582-50.2441L89.9902-50.2441C90.8691-50.2441 91.5527-49.5605 91.5527-48.6816L91.5527-46.4355C91.5527-45.5566 90.8691-44.873 89.9902-44.873ZM87.1582-56.7383C86.2793-56.7383 85.5957-57.373 85.5957-58.252L85.5957-60.498C85.5957-61.4258 86.2793-62.0605 87.1582-62.0605L89.9902-62.0605C90.8691-62.0605 91.5527-61.4258 91.5527-60.498L91.5527-58.252C91.5527-57.373 90.8691-56.7383 89.9902-56.7383Z"/>
  </g>
  <g id="Regular-S" transform="matrix(1 0 0 1 1394.79 696)">
   <path class="monochrome-0 multicolor-0:tintColor hierarchical-0:primary SFSymbolsPreviewWireframe" d="M18.2129 0.390625L91.8945 0.390625C97.0215 0.390625 100.342-2.92969 100.342-7.91016L100.342-62.5C100.342-67.4805 97.0215-70.8008 91.8945-70.8008L18.2129-70.8008C13.1348-70.8008 9.76562-67.4805 9.76562-62.5L9.76562-7.91016C9.76562-2.92969 13.1348 0.390625 18.2129 0.390625ZM18.2617-6.64062C17.0898-6.64062 16.3574-7.4707 16.3574-8.49609L16.3574-12.3047C16.3574-13.4277 17.0898-14.1602 18.2129-14.1602L22.5098-14.1602C23.584-14.1602 24.3164-13.4277 24.3164-12.3047L24.3164-8.49609C24.3164-7.42188 23.584-6.64062 22.5098-6.64062ZM18.2129-19.1895C17.0898-19.1895 16.3574-20.0195 16.3574-20.9961L16.3574-24.8047C16.3574-25.9277 17.0898-26.6602 18.2129-26.6602L22.5098-26.6602C23.584-26.6602 24.3164-25.9277 24.3164-24.8047L24.3164-20.9961C24.3164-20.0195 23.584-19.1895 22.5098-19.1895ZM18.2129-31.4941C17.0898-31.4941 16.3574-32.2754 16.3574-33.252L16.3574-37.0605C16.3574-38.1836 17.0898-38.916 18.2129-38.916L22.5098-38.916C23.584-38.916 24.3164-38.1836 24.3164-37.0605L24.3164-33.252C24.3164-32.2754 23.584-31.4941 22.5098-31.4941ZM18.2129-43.6523C17.0898-43.6523 16.3574-44.4824 16.3574-45.4102L16.3574-49.2676C16.3574-50.3418 17.0898-51.123 18.2129-51.123L22.5098-51.123C23.584-51.123 24.3164-50.3418 24.3164-49.2676L24.3164-45.4102C24.3164-44.4824 23.584-43.6523 22.5098-43.6523ZM18.2129-56.25C17.0898-56.25 16.3574-57.0312 16.3574-58.0078L16.3574-61.8652C16.3574-62.9395 17.0898-63.7207 18.2617-63.7207L22.5098-63.7207C23.584-63.7207 24.3164-62.9395 24.3164-61.8652L24.3164-58.0078C24.3164-57.0312 23.584-56.25 22.5098-56.25ZM32.2266-6.64062C31.1035-6.64062 30.4199-7.32422 30.4199-8.44727L30.4199-29.7852C30.4199-30.9082 31.1035-31.5918 32.2266-31.5918L77.8809-31.5918C79.0039-31.5918 79.6875-30.9082 79.6875-29.7852L79.6875-8.44727C79.6875-7.32422 79.0039-6.64062 77.8809-6.64062ZM32.2266-38.6719C31.1035-38.6719 30.4199-39.3555 30.4199-40.4785L30.4199-61.9629C30.4199-63.0859 31.1035-63.7207 32.2266-63.7207L77.8809-63.7207C79.0039-63.7207 79.6875-63.0859 79.6875-61.9629L79.6875-40.4785C79.6875-39.3555 79.0039-38.6719 77.8809-38.6719ZM87.5977-6.64062C86.5234-6.64062 85.791-7.42188 85.791-8.49609L85.791-12.3047C85.791-13.4277 86.5234-14.1602 87.5977-14.1602L91.9434-14.1602C93.0664-14.1602 93.7988-13.4277 93.7988-12.3047L93.7988-8.49609C93.7988-7.4707 93.0176-6.64062 91.8945-6.64062ZM87.5977-19.1895C86.5234-19.1895 85.791-20.0195 85.791-20.9961L85.791-24.8047C85.791-25.9277 86.5234-26.6602 87.5977-26.6602L91.9434-26.6602C93.0664-26.6602 93.7988-25.9277 93.7988-24.8047L93.7988-20.9961C93.7988-20.0195 93.0664-19.1895 91.9434-19.1895ZM87.5977-31.4941C86.5234-31.4941 85.791-32.2754 85.791-33.252L85.791-37.0605C85.791-38.1836 86.5234-38.916 87.5977-38.916L91.9434-38.916C93.0664-38.916 93.7988-38.1836 93.7988-37.0605L93.7988-33.252C93.7988-32.2754 93.0664-31.4941 91.9434-31.4941ZM87.5977-43.6523C86.5234-43.6523 85.791-44.4824 85.791-45.4102L85.791-49.2676C85.791-50.3418 86.5234-51.123 87.5977-51.123L91.9434-51.123C93.0664-51.123 93.7988-50.3418 93.7988-49.2676L93.7988-45.4102C93.7988-44.4824 93.0664-43.6523 91.9434-43.6523ZM87.5977-56.25C86.5234-56.25 85.791-57.0312 85.791-58.0078L85.791-61.8652C85.791-62.9395 86.5234-63.7207 87.5977-63.7207L91.8945-63.7207C93.0176-63.7207 93.7988-62.9395 93.7988-61.8652L93.7988-58.0078C93.7988-57.0312 93.0664-56.25 91.9434-56.25Z"/>
  </g>
  <g id="Ultralight-S" transform="matrix(1 0 0 1 505.702 696)">
   <path class="monochrome-0 multicolor-0:tintColor hierarchical-0:primary SFSymbolsPreviewWireframe" d="M14.4439-1.47118L93.5747-1.47118C96.6582-1.47118 98.2529-3.06592 98.2529-6.13917L98.2529-64.0893C98.2529-67.1172 96.6582-68.7573 93.5747-68.7573L14.4439-68.7573C11.3638-68.7573 9.76562-67.1172 9.76562-64.0893L9.76562-6.13917C9.76562-3.06592 11.3638-1.47118 14.4439-1.47118ZM14.5381-3.68899C12.9121-3.68899 11.9527-4.6553 11.9527-6.27101L11.9527-12.8496C11.9527-13.8818 12.7759-14.7505 13.9444-14.7505L21.7378-14.7505C22.8574-14.7505 23.6807-13.8818 23.6807-12.8496L23.6807-5.68069C23.6807-4.47024 22.8574-3.68899 21.7378-3.68899ZM13.9444-16.8736C12.7759-16.8736 11.9527-17.749 11.9527-18.771L11.9527-25.6221C11.9527-26.8359 12.6851-27.6138 13.9444-27.6138L21.7378-27.6138C22.8574-27.6138 23.6807-26.8359 23.6807-25.6221L23.6807-18.771C23.6807-17.749 22.8574-16.8736 21.7378-16.8736ZM13.9444-29.7232C12.7759-29.7232 11.9527-30.5952 11.9527-31.6172L11.9527-38.5137C11.9527-39.7275 12.6851-40.5054 13.9444-40.5054L21.7378-40.5054C22.8574-40.5054 23.6807-39.7275 23.6807-38.5137L23.6807-31.6172C23.6807-30.5952 22.8574-29.7232 21.7378-29.7232ZM13.9444-42.5625C12.7759-42.5625 11.9527-43.4834 11.9527-44.502L11.9527-51.3564C11.9527-52.5669 12.6851-53.3481 13.9444-53.3481L21.7378-53.3481C22.8574-53.3481 23.6807-52.5669 23.6807-51.3564L23.6807-44.502C23.6807-43.4834 22.8574-42.5625 21.7378-42.5625ZM13.9444-55.478C12.7759-55.478 11.9527-56.3501 11.9527-57.3721L11.9527-63.9541C11.9527-65.5732 12.9121-66.5361 14.5381-66.5361L21.7378-66.5361C22.8574-66.5361 23.6807-65.7549 23.6807-64.5444L23.6807-57.3721C23.6807-56.3501 22.8574-55.478 21.7378-55.478ZM27.6402-3.68899C26.4717-3.68899 25.8335-4.32717 25.8335-5.49563L25.8335-32.1919C25.8335-33.3603 26.4717-33.9985 27.6402-33.9985L80.3784-33.9985C81.5469-33.9985 82.185-33.3603 82.185-32.1919L82.185-5.49563C82.185-4.32717 81.5469-3.68899 80.3784-3.68899ZM27.6402-36.2197C26.4717-36.2197 25.8335-36.8579 25.8335-38.0264L25.8335-64.7329C25.8335-65.9013 26.4717-66.5361 27.6402-66.5361L80.3784-66.5361C81.5469-66.5361 82.185-65.9013 82.185-64.7329L82.185-38.0264C82.185-36.8579 81.5469-36.2197 80.3784-36.2197ZM86.2808-3.68899C85.1611-3.68899 84.3379-4.47024 84.3379-5.68069L84.3379-12.8496C84.3379-13.8818 85.1611-14.7505 86.2808-14.7505L94.0776-14.7505C95.2461-14.7505 96.0693-13.8818 96.0693-12.8496L96.0693-6.27101C96.0693-4.6553 95.1064-3.68899 93.4839-3.68899ZM86.2808-16.8736C85.1611-16.8736 84.3379-17.749 84.3379-18.771L84.3379-25.6221C84.3379-26.8359 85.1611-27.6138 86.2808-27.6138L94.0776-27.6138C95.3369-27.6138 96.0693-26.8359 96.0693-25.6221L96.0693-18.771C96.0693-17.749 95.2461-16.8736 94.0776-16.8736ZM86.2808-29.7232C85.1611-29.7232 84.3379-30.5952 84.3379-31.6172L84.3379-38.5137C84.3379-39.7275 85.1611-40.5054 86.2808-40.5054L94.0776-40.5054C95.3369-40.5054 96.0693-39.7275 96.0693-38.5137L96.0693-31.6172C96.0693-30.5952 95.2461-29.7232 94.0776-29.7232ZM86.2808-42.5625C85.1611-42.5625 84.3379-43.4834 84.3379-44.502L84.3379-51.3564C84.3379-52.5669 85.1611-53.3481 86.2808-53.3481L94.0776-53.3481C95.3369-53.3481 96.0693-52.5669 96.0693-51.3564L96.0693-44.502C96.0693-43.4834 95.2461-42.5625 94.0776-42.5625ZM86.2808-55.478C85.1611-55.478 84.3379-56.3501 84.3379-57.3721L84.3379-64.5444C84.3379-65.7549 85.1611-66.5361 86.2808-66.5361L93.4839-66.5361C95.1064-66.5361 96.0693-65.5732 96.0693-63.9541L96.0693-57.3721C96.0693-56.3501 95.2461-55.478 94.0776-55.478Z"/>
  </g>
 </g>
</svg>
